<?xml version="1.0" encoding="UTF-8"?>
<svg id="Layer_1" data-name="Layer 1" xmlns="http://www.w3.org/2000/svg" viewBox="0 0 80.22 72">
  <defs>
    <style>
      .cls-1 {
        fill: #fff;
      }

      .cls-1, .cls-2, .cls-3 {
        stroke-width: 0px;
      }

      .cls-2 {
        fill-rule: evenodd;
      }

      .cls-2, .cls-3 {
        fill: #620d17;
      }
    </style>
  </defs>
  <g id="AMS-logo-full">
    <g>
      <path class="cls-3" d="m1.24,65.28c-.08.09-.13.2-.13.33s.04.24.13.33c.08.09.19.14.32.14s.23-.05.32-.14c.08-.09.13-.2.13-.33s-.04-.24-.13-.33c-.08-.09-.19-.14-.32-.14s-.23.05-.32.14"/>
      <path class="cls-3" d="m2.36,65.28c-.09.09-.13.2-.13.32s.04.24.13.33c.09.09.19.14.32.14s.23-.05.31-.14c.08-.09.12-.2.12-.33s-.04-.24-.12-.32c-.08-.09-.19-.13-.31-.13s-.23.04-.32.13"/>
      <path class="cls-3" d="m4.58,70.66c-.13,0-.23.05-.32.14-.08.09-.13.2-.13.33s.04.24.13.33c.08.09.19.14.32.14s.23-.05.32-.14c.08-.09.13-.2.13-.33s-.04-.24-.13-.33c-.08-.09-.19-.14-.32-.14"/>
      <path class="cls-3" d="m5.7,70.67c-.13,0-.23.04-.32.13-.09.09-.13.2-.13.32s.04.24.13.33c.09.09.19.14.32.14s.23-.05.31-.14c.08-.09.12-.2.12-.33s-.04-.24-.12-.32c-.08-.09-.19-.13-.31-.13"/>
      <path class="cls-3" d="m11.79,70.68c-.13,0-.23.04-.32.13-.09.09-.13.2-.13.32s.04.24.13.33c.09.09.19.14.32.14s.23-.05.31-.14c.08-.09.12-.2.12-.33s-.04-.24-.12-.32c-.08-.09-.19-.13-.31-.13"/>
      <path class="cls-3" d="m10.67,70.67c-.13,0-.23.05-.32.14-.08.09-.13.2-.13.33s.04.24.13.33c.08.09.19.14.32.14s.23-.05.32-.14c.08-.09.13-.2.13-.33s-.04-.24-.13-.33c-.08-.09-.19-.14-.32-.14"/>
      <path class="cls-3" d="m11.85,70.06v-3.38h-.66v2.8h-1.76v-.11c0-.71-.17-1.3-.51-1.78-.34-.48-.81-.81-1.41-1,.21-.11.4-.21.58-.3.18-.09.36-.19.53-.28.17-.09.34-.18.51-.27.17-.09.35-.19.53-.28v-.82c-.55.31-1.08.62-1.6.92-.52.3-1.05.61-1.61.91v.6c.43.04.79.14,1.08.29.29.15.53.34.71.56.18.22.31.46.39.73.08.27.12.55.12.83h-3.07v-2.8h-.66v2.8h-1.74v-2.8c-.2-.03-.39-.06-.56-.08-.17-.02-.37-.03-.59-.03-.26,0-.5.04-.72.13-.22.09-.41.21-.57.37s-.29.35-.38.58c-.09.23-.14.47-.14.75,0,.24.04.47.11.67.07.2.18.38.33.52.14.15.32.26.54.34.21.08.46.12.73.12h9.81Zm-9.21-.58h-.51c-.36,0-.63-.1-.82-.31-.19-.21-.28-.51-.28-.91,0-.17.03-.32.08-.46.05-.14.13-.26.22-.36.09-.1.2-.18.32-.24s.26-.09.4-.09c.03,0,.07,0,.12,0,.05,0,.1,0,.16,0,.06,0,.11,0,.17.01.05,0,.1.02.14.03v2.31Z"/>
      <path class="cls-3" d="m19.09,66.98c-.12-.14-.27-.24-.45-.31-.17-.07-.37-.1-.58-.1-.25,0-.48.04-.68.12-.2.08-.38.2-.53.35-.15.16-.26.35-.34.59s-.12.52-.12.84c0,.2-.02.36-.06.49-.04.13-.1.23-.17.31-.07.08-.15.13-.24.16-.09.03-.18.04-.27.04h-.09s-.99,0-.99,0v-2.8h-.66v3.45c0,.38-.08.66-.24.84-.16.18-.41.27-.76.27-.1,0-.21,0-.32-.02l-.07.66c.13.01.26.02.38.02.33,0,.6-.05.81-.14.21-.09.38-.22.51-.38.13-.16.22-.35.27-.57.05-.22.08-.46.08-.73v-.03h.99c.3,0,.54-.07.71-.2.17-.13.3-.3.36-.5.12.21.29.37.52.5.23.13.55.2.97.2h1.34v-1.76c0-.3-.03-.56-.1-.78-.07-.22-.16-.4-.28-.54m-.28,2.5h-.55c-.4,0-.7-.1-.89-.29-.19-.19-.28-.5-.28-.93,0-.16.02-.31.05-.45.03-.14.08-.26.15-.36.07-.1.16-.18.27-.24.11-.06.24-.09.4-.09.14,0,.26.03.36.08.11.05.19.13.27.22.07.1.13.21.16.34.04.13.06.26.06.41v1.31Z"/>
      <path class="cls-3" d="m21.66,64.63h-.31c-.14,0-.24-.03-.3-.09-.06-.06-.09-.13-.09-.2s.03-.13.08-.17c.05-.04.12-.06.2-.06.04,0,.08,0,.12,0,.04,0,.08,0,.13.01l.09-.35c-.06,0-.12-.02-.18-.02-.06,0-.11,0-.16,0-.21,0-.38.05-.51.15-.13.1-.2.24-.2.41,0,.09.01.17.04.22.03.06.07.11.14.15-.07-.02-.15-.04-.26-.04-.1,0-.18,0-.24,0v.42h1.45v-.42Z"/>
      <path class="cls-3" d="m22.93,68.5c0,.15-.02.28-.06.4-.04.12-.11.23-.2.31-.1.08-.22.15-.38.19-.16.05-.35.07-.59.07-.18,0-.36-.02-.55-.06-.19-.04-.37-.09-.53-.16l-.09.74c.16.04.33.07.52.1.19.03.39.04.6.04.36,0,.67-.04.92-.13.25-.09.45-.2.6-.36.15-.15.26-.33.33-.54.07-.21.1-.44.1-.69v-3.74h-.66v3.82Z"/>
      <path class="cls-3" d="m20.97,66.17v2.74l.66-.15v-3.11c-.22,0-.44,0-.67,0-.23,0-.44.03-.63.05v.39c.11,0,.22.02.33.03.12.01.22.03.31.04"/>
      <path class="cls-3" d="m24.21,64.73v.39c.11,0,.22.02.33.03.12.01.22.03.31.04v4.87h.66v-5.39c-.22,0-.44,0-.67,0-.23,0-.44.03-.63.05"/>
      <path class="cls-3" d="m30.31,66.08c.13,0,.23-.05.31-.14.08-.09.12-.2.12-.33s-.04-.24-.12-.32c-.08-.09-.19-.13-.31-.13s-.23.04-.32.13c-.09.09-.13.2-.13.32s.04.24.13.33c.09.09.19.14.32.14"/>
      <path class="cls-3" d="m28.87,65.28c-.08.09-.13.2-.13.33s.04.24.13.33c.08.09.19.14.32.14s.23-.05.32-.14c.08-.09.13-.2.13-.33s-.04-.24-.13-.33c-.08-.09-.19-.14-.32-.14s-.23.05-.32.14"/>
      <path class="cls-3" d="m33.34,70.67c-.13,0-.23.04-.32.13-.09.09-.13.2-.13.32s.04.24.13.33c.09.09.19.14.32.14s.23-.05.31-.14c.08-.09.12-.2.12-.33s-.04-.24-.12-.32c-.08-.09-.19-.13-.31-.13"/>
      <path class="cls-3" d="m32.21,70.66c-.13,0-.23.05-.32.14-.08.09-.13.2-.13.33s.04.24.13.33c.08.09.19.14.32.14s.23-.05.32-.14c.08-.09.12-.2.12-.33s-.04-.24-.12-.33c-.08-.09-.19-.14-.32-.14"/>
      <path class="cls-3" d="m37.69,66.98c-.12-.14-.27-.24-.45-.31-.17-.07-.37-.1-.58-.1-.25,0-.48.04-.68.12-.2.08-.38.2-.53.35-.15.16-.26.35-.34.59-.08.24-.12.52-.12.84,0,.2-.02.36-.06.49-.04.13-.1.23-.17.31-.07.08-.15.13-.24.16-.09.03-.18.04-.27.04h-.93v-2.8h-.66v2.8h-1.74v-2.8c-.2-.03-.39-.06-.56-.08-.17-.02-.37-.03-.59-.03-.26,0-.5.04-.72.13-.22.09-.41.21-.57.37s-.29.35-.38.58c-.09.23-.14.47-.14.75,0,.24.04.47.11.67.07.2.18.38.33.52.14.15.32.26.54.34.21.08.46.12.73.12h4.5c.3,0,.54-.07.71-.2.17-.13.3-.3.36-.5.12.21.29.37.52.5.23.13.55.2.97.2h1.34v-1.76c0-.3-.03-.56-.1-.78-.07-.22-.16-.4-.28-.54m-7.42,2.5h-.51c-.36,0-.63-.1-.82-.31-.19-.21-.28-.51-.28-.91,0-.17.03-.32.08-.46.05-.14.13-.26.22-.36.09-.1.2-.18.32-.24s.26-.09.4-.09c.03,0,.07,0,.12,0,.05,0,.1,0,.16,0,.06,0,.11,0,.17.01.05,0,.1.02.14.03v2.31Zm7.14,0h-.55c-.4,0-.7-.1-.89-.29-.19-.19-.28-.5-.28-.93,0-.16.02-.31.05-.45.03-.14.08-.26.15-.36.07-.1.16-.18.27-.24.11-.06.24-.09.4-.09.14,0,.26.03.36.08.11.05.19.13.26.22.07.1.13.21.16.34.04.13.06.26.06.41v1.31Z"/>
      <path class="cls-3" d="m39.45,65.14v3.77l.66-.15v-4.13c-.22,0-.44,0-.67,0-.23.01-.44.03-.63.05v.39c.11,0,.22.02.33.03.12.01.22.03.31.04"/>
      <path class="cls-3" d="m48.3,66.31l-.68.13c.04.24.07.5.1.79.03.29.04.6.04.96v1.3h-.68c-.19,0-.34-.05-.46-.15-.12-.1-.18-.24-.18-.42v-2.22h-.66v1.46c0,.51-.06.86-.18,1.07-.12.21-.3.31-.54.31-.21,0-.37-.07-.49-.21-.12-.14-.18-.38-.18-.72v-1.92h-.66v1.64c0,.38-.08.66-.24.86-.16.2-.37.29-.63.29h-.12s-.07,0-.07,0c-.31,0-.55-.09-.72-.27.09-.23.13-.49.13-.78v-3.74h-.66v3.82c0,.15-.02.28-.06.4-.04.12-.11.23-.2.31-.1.08-.22.15-.38.19-.16.05-.35.07-.59.07-.18,0-.36-.02-.55-.06s-.37-.09-.53-.16l-.09.74c.16.04.33.07.52.1.19.03.39.04.6.04.34,0,.63-.04.86-.11.24-.07.44-.18.59-.32.13.11.28.19.46.26.17.06.35.09.53.09h0s.02,0,.02,0h.32c.18,0,.36-.05.54-.14.18-.09.33-.24.44-.45.08.22.21.39.39.5.18.11.37.17.56.17.31,0,.55-.06.73-.18.18-.12.31-.28.4-.49.08.2.2.35.36.45.16.1.38.15.66.15h1.4v-2.02c0-.32-.01-.64-.03-.94-.02-.3-.05-.57-.09-.79"/>
      <path class="cls-3" d="m51.83,68.5c0,.15-.02.28-.06.4-.04.12-.11.23-.2.31-.1.08-.22.15-.38.19-.16.05-.35.07-.59.07-.18,0-.36-.02-.55-.06-.19-.04-.37-.09-.53-.16l-.09.74c.16.04.33.07.52.1.19.03.39.04.6.04.36,0,.67-.04.92-.13.25-.09.45-.2.6-.36.15-.15.26-.33.33-.54.07-.21.1-.44.1-.69v-3.74h-.66v3.82Z"/>
      <path class="cls-3" d="m49.87,65.14v3.77l.66-.15v-4.13c-.22,0-.44,0-.67,0-.23.01-.44.03-.63.05v.39c.11,0,.22.02.33.03.12.01.22.03.31.04"/>
      <path class="cls-3" d="m50.32,71.49c-.06-.06-.09-.12-.09-.2s.03-.13.08-.17c.05-.04.12-.06.2-.06.04,0,.08,0,.12,0,.04,0,.08,0,.13.01l.09-.35c-.06,0-.12-.02-.18-.02-.06,0-.11,0-.16,0-.21,0-.38.05-.51.15-.13.1-.2.24-.2.41,0,.09.01.17.04.22.03.06.07.11.14.15-.07-.02-.15-.04-.26-.04-.1,0-.18,0-.24,0v.42h1.45v-.42h-.31c-.14,0-.24-.03-.3-.09"/>
      <path class="cls-3" d="m53.23,64.73v.39c.11,0,.22.02.33.03.11.01.22.03.31.04v4.87h.66v-5.39c-.22,0-.44,0-.67,0-.23,0-.44.03-.63.05"/>
      <path class="cls-3" d="m58.21,66.07c.13,0,.23-.05.32-.14.08-.09.12-.2.12-.33s-.04-.24-.12-.33c-.08-.09-.19-.14-.32-.14s-.23.05-.32.14c-.08.09-.12.2-.12.33s.04.24.12.33c.08.09.19.14.32.14"/>
      <path class="cls-3" d="m59.01,65.28c-.09.09-.13.2-.13.32s.04.24.13.33c.09.09.19.14.32.14s.23-.05.31-.14c.08-.09.12-.2.12-.33s-.04-.24-.12-.32c-.08-.09-.19-.13-.31-.13s-.23.04-.32.13"/>
      <path class="cls-3" d="m61.23,70.66c-.13,0-.23.05-.32.14-.08.09-.13.2-.13.33s.04.24.13.33c.08.09.19.14.32.14s.23-.05.32-.14c.08-.09.12-.2.12-.33s-.04-.24-.12-.33c-.08-.09-.19-.14-.32-.14"/>
      <path class="cls-3" d="m62.36,70.67c-.13,0-.23.04-.32.13-.09.09-.13.2-.13.32s.04.24.13.33c.09.09.19.14.32.14s.23-.05.31-.14c.08-.09.12-.2.12-.33s-.04-.24-.12-.32c-.08-.09-.19-.13-.31-.13"/>
      <path class="cls-3" d="m73.32,70.65c-.12,0-.22.04-.31.13-.08.09-.12.19-.12.31s.04.23.12.32c.08.09.18.13.31.13s.22-.04.3-.13c.08-.09.11-.19.11-.32s-.04-.22-.11-.31c-.08-.09-.18-.13-.3-.13"/>
      <path class="cls-3" d="m76.78,69.48h-1.7v-1c0-.36-.06-.65-.18-.89-.12-.23-.28-.42-.48-.55-.2-.13-.43-.23-.68-.28-.25-.05-.51-.08-.78-.08-.16,0-.29,0-.4,0-.11,0-.2.01-.29.02l-.07.58c.08,0,.18-.02.3-.02.12,0,.24,0,.38,0,.52,0,.9.1,1.16.31.26.21.39.56.39,1.06v.84h-3.33v-1.18c0-.3-.03-.57-.1-.78-.07-.22-.16-.4-.28-.54-.12-.14-.27-.24-.45-.31-.17-.07-.37-.1-.58-.1-.25,0-.48.04-.68.12-.2.08-.38.2-.53.35-.15.16-.26.35-.34.59s-.12.52-.12.84c0,.2-.02.36-.06.49-.04.13-.1.23-.17.31-.07.08-.15.13-.24.16-.09.03-.18.04-.27.04h-.08s-.1-.01-.1-.01c-.21,0-.4-.03-.58-.1-.17-.06-.33-.15-.48-.26.25-.22.44-.44.57-.68.13-.24.19-.46.19-.67,0-.18-.03-.34-.1-.5-.06-.15-.16-.29-.29-.4-.13-.12-.29-.21-.47-.27-.19-.07-.41-.1-.67-.1-.3,0-.61.06-.92.18-.31.12-.61.27-.89.46l-.1.69c.19.09.35.17.48.25.13.08.26.17.38.26.11.1.23.2.34.33.11.12.24.27.38.44-.54.24-1.09.36-1.64.36h-.25s-.7.01-.7.01v-2.8h-.66v2.8h-1.74v-2.8c-.2-.03-.39-.06-.56-.08-.17-.02-.37-.03-.59-.03-.26,0-.5.04-.72.13-.22.09-.41.21-.57.37-.16.16-.29.35-.38.58-.09.23-.14.47-.14.75,0,.24.04.47.11.67.07.2.18.38.33.52.14.15.32.26.54.34.21.08.46.12.73.12h4.71c.33,0,.66-.05,1.01-.14.34-.09.68-.22,1-.39.23.17.47.3.74.39.26.09.56.14.89.14h0s.01,0,.01,0h.14c.3,0,.53-.07.7-.2.17-.13.3-.3.36-.5.12.21.29.37.52.5.23.13.55.2.97.2h7.69v-5.39h-.66v4.8Zm-17.49,0h-.51c-.36,0-.63-.1-.82-.31-.19-.21-.28-.51-.28-.91,0-.17.03-.32.08-.46.05-.14.13-.26.22-.36.09-.1.2-.18.32-.24.13-.06.26-.09.4-.09.03,0,.07,0,.12,0,.05,0,.1,0,.16,0,.06,0,.11,0,.17.01.05,0,.1.02.14.03v2.31Zm6.22-.71c-.24-.33-.48-.6-.72-.8-.25-.21-.51-.34-.79-.41.19-.13.38-.23.57-.32.19-.08.41-.13.64-.13.27,0,.49.06.65.19.16.13.24.3.24.52,0,.16-.06.32-.17.48-.11.16-.25.32-.41.46m4.91.71h-.55c-.4,0-.7-.1-.89-.29-.19-.19-.28-.5-.28-.93,0-.16.02-.31.05-.45.03-.14.08-.26.15-.36.07-.1.16-.18.27-.24.11-.06.24-.09.4-.09.14,0,.26.03.36.08.11.05.19.13.26.22.07.1.13.21.16.34.04.13.06.26.06.41v1.31Z"/>
      <path class="cls-3" d="m78.25,64.73v.39c.11,0,.22.02.33.03.11.01.22.03.31.04v4.87h.66v-5.39c-.22,0-.44,0-.67,0-.23,0-.44.03-.63.05"/>
      <path class="cls-3" d="m1.43,58.41h2.24l.7,1.56h.77l-2.35-5.28h-.53l-2.25,5.28h.77l.66-1.56Zm1.08-2.57l.85,1.9h-1.63l.79-1.9Z"/>
      <path class="cls-3" d="m6.22,57.46c.15-.17.29-.28.41-.35.12-.07.25-.1.39-.1.26,0,.43.08.54.23.1.15.15.42.15.8v1.92h.69v-2.51c.25-.29.51-.43.79-.43.22,0,.39.08.51.23.12.15.18.37.18.66v2.05h.68v-2.04c0-.5-.11-.88-.33-1.12-.22-.25-.49-.37-.83-.37-.4,0-.78.21-1.15.63-.24-.42-.58-.62-1.02-.62-.33,0-.67.17-1.02.52v-.45h-.68v3.46h.68v-2.51Z"/>
      <path class="cls-3" d="m12.07,59.79c.24.16.54.24.92.24.28,0,.52-.03.73-.09.21-.06.42-.16.63-.3v-.67c-.38.28-.8.42-1.25.42-.32,0-.59-.1-.79-.29-.2-.2-.31-.46-.33-.79h2.43v-.09c0-.54-.14-.97-.41-1.29-.27-.32-.64-.48-1.1-.48s-.86.16-1.16.49c-.3.33-.45.76-.45,1.28,0,.35.07.66.21.93.14.27.33.48.57.64m.23-2.53c.16-.15.36-.22.6-.22s.44.07.59.22c.15.15.23.36.24.63h-1.74c.05-.27.15-.48.31-.63"/>
      <path class="cls-3" d="m15.83,58.16c0-.29.08-.54.24-.75.16-.21.35-.32.57-.32.2,0,.42.11.66.34l.36-.6c-.28-.26-.55-.39-.81-.39-.33,0-.66.27-.99.8l-.04.06v-.79h-.69v3.46h.69v-1.81Z"/>
      <rect class="cls-3" x="18.11" y="56.51" width=".68" height="3.46"/>
      <path class="cls-3" d="m18.45,55.87c.11,0,.21-.04.29-.12s.12-.18.12-.29-.04-.21-.12-.29c-.08-.08-.18-.12-.29-.12-.11,0-.2.04-.28.12-.08.08-.12.17-.12.28s.04.2.12.28c.08.08.17.12.28.12"/>
      <path class="cls-3" d="m22.33,59.84v-.68c-.34.15-.64.23-.91.23-.36,0-.65-.1-.87-.31-.21-.21-.32-.49-.32-.84s.1-.61.3-.83c.2-.22.45-.32.76-.32s.62.11.96.33v-.73c-.21-.09-.38-.16-.52-.19-.14-.03-.3-.05-.48-.05-.51,0-.92.17-1.24.5-.31.33-.47.77-.47,1.31s.16.97.48,1.29c.32.32.75.48,1.29.48.33,0,.66-.06,1.01-.19"/>
      <path class="cls-3" d="m25.24,59.36v-1.47c0-.29,0-.49-.02-.59-.02-.1-.05-.21-.11-.31-.06-.1-.13-.19-.2-.25-.23-.2-.52-.29-.9-.29-.5,0-.88.16-1.15.47v.75c.35-.39.72-.58,1.09-.58.42,0,.62.21.62.62v.18l-.88.3c-.29.1-.51.24-.67.41-.16.17-.23.37-.23.58,0,.24.08.44.24.6.16.16.36.24.6.24.33,0,.64-.11.93-.34.05.23.23.35.52.35.1,0,.2-.02.29-.05.09-.04.22-.1.37-.2v-.42c-.18.12-.3.18-.39.18s-.12-.06-.12-.18m-.67-.08c-.19.18-.39.27-.6.27-.15,0-.26-.05-.36-.14-.09-.09-.14-.21-.14-.35s.05-.26.14-.35c.1-.09.26-.19.49-.28l.46-.18v1.03Z"/>
      <path class="cls-3" d="m28.35,57.24c.11.15.16.4.16.76v1.97h.68v-1.98c0-.42-.05-.73-.14-.92-.1-.19-.24-.35-.42-.46-.19-.11-.39-.17-.6-.17-.39,0-.74.17-1.04.51v-.44h-.7v3.46h.7v-2.47c.23-.32.5-.48.82-.48.25,0,.43.08.54.23"/>
      <polygon class="cls-3" points="33.02 55.89 34.66 57.91 34.8 57.91 36.41 55.89 36.41 59.97 37.17 59.97 37.17 54.72 36.46 54.72 34.73 56.88 32.98 54.72 32.27 54.72 32.27 59.97 33.02 59.97 33.02 55.89"/>
      <path class="cls-3" d="m41.11,59.54c.35-.33.53-.74.53-1.24s-.17-.94-.52-1.28c-.35-.34-.79-.51-1.31-.51s-.97.17-1.32.51c-.35.34-.53.76-.53,1.26s.17.92.52,1.25c.35.33.78.5,1.3.5s.98-.16,1.33-.49m-2.46-1.27c0-.33.11-.61.32-.82.21-.22.48-.32.81-.32s.62.11.84.32c.22.22.33.49.33.82s-.11.6-.32.81c-.21.21-.49.32-.82.32s-.62-.1-.83-.31c-.22-.21-.32-.48-.32-.81"/>
      <path class="cls-3" d="m43.34,60.03c.35,0,.63-.09.85-.27.22-.18.33-.41.33-.7,0-.4-.29-.76-.86-1.08l-.24-.14c-.19-.1-.32-.19-.39-.26-.07-.07-.11-.15-.11-.23,0-.09.04-.17.12-.22.08-.06.19-.08.32-.08.26,0,.59.12,1,.37v-.68c-.36-.19-.7-.29-1.04-.29s-.59.08-.8.25c-.21.17-.31.38-.31.65,0,.21.07.4.2.57.14.17.42.38.87.63.22.13.36.22.43.29.07.07.1.15.1.25s-.05.18-.15.25c-.1.07-.23.11-.37.11s-.31-.04-.51-.13c-.2-.08-.4-.19-.59-.33v.74c.24.12.44.2.6.24.16.04.34.07.55.07"/>
      <rect class="cls-3" x="45.29" y="54.72" width=".68" height="5.25"/>
      <path class="cls-3" d="m49.8,58.96c-.38.28-.8.42-1.25.42-.32,0-.59-.1-.79-.29-.2-.2-.31-.46-.33-.79h2.43v-.09c0-.54-.14-.97-.41-1.29-.27-.32-.64-.48-1.1-.48s-.86.16-1.16.49c-.3.33-.45.76-.45,1.28,0,.35.07.66.21.93.14.27.33.48.57.64.24.16.54.24.92.24.28,0,.52-.03.73-.09.21-.06.42-.16.63-.3v-.67Zm-2.05-1.7c.16-.15.36-.22.6-.22s.44.07.59.22c.15.15.23.36.24.63h-1.74c.05-.27.15-.48.31-.63"/>
      <path class="cls-3" d="m54.39,56.44c-.4,0-.78.21-1.15.63-.24-.42-.58-.62-1.02-.62-.33,0-.67.17-1.02.52v-.45h-.68v3.46h.68v-2.51c.15-.17.29-.28.41-.35.12-.07.25-.1.39-.1.26,0,.43.08.54.23.1.15.15.42.15.8v1.92h.69v-2.51c.25-.29.51-.43.79-.43.22,0,.39.08.51.23.12.15.18.37.18.66v2.05h.68v-2.04c0-.5-.11-.88-.33-1.12-.22-.25-.49-.37-.83-.37"/>
      <path class="cls-3" d="m59.35,57.42l.57.35c.46.29.69.59.69.91,0,.2-.08.36-.24.49-.16.13-.35.2-.59.2-.53,0-1-.26-1.41-.77v.95c.43.32.9.48,1.42.48.45,0,.82-.13,1.1-.39.28-.26.42-.61.42-1.03,0-.59-.32-1.08-.96-1.46l-.57-.34c-.26-.15-.44-.29-.56-.43-.12-.14-.17-.28-.17-.44,0-.18.08-.32.24-.44.16-.11.36-.17.6-.17.44,0,.84.18,1.22.55v-.85c-.37-.25-.77-.37-1.21-.37s-.83.13-1.12.39c-.29.26-.43.59-.43,1.01,0,.28.08.52.23.73.15.21.41.43.76.65"/>
      <path class="cls-3" d="m63.63,60.03c.54,0,.98-.16,1.33-.49.35-.33.53-.74.53-1.24s-.17-.94-.52-1.28c-.35-.34-.79-.51-1.31-.51s-.97.17-1.32.51c-.35.34-.53.76-.53,1.26s.17.92.52,1.25c.35.33.78.5,1.3.5m-.82-2.59c.21-.22.48-.32.81-.32s.62.11.84.32c.22.22.33.49.33.82s-.11.6-.32.81c-.21.21-.49.32-.82.32s-.62-.1-.83-.31c-.22-.21-.32-.48-.32-.81s.11-.61.32-.82"/>
      <path class="cls-3" d="m67.79,60.03c.33,0,.66-.06,1.01-.19v-.68c-.34.15-.64.23-.91.23-.36,0-.65-.1-.87-.31-.21-.21-.32-.49-.32-.84s.1-.61.3-.83c.2-.22.45-.32.76-.32s.62.11.96.33v-.73c-.21-.09-.38-.16-.52-.19s-.3-.05-.48-.05c-.51,0-.92.17-1.24.5-.31.33-.47.77-.47,1.31s.16.97.48,1.29c.32.32.75.48,1.29.48"/>
      <path class="cls-3" d="m69.88,55.87c.11,0,.21-.04.29-.12.08-.08.12-.18.12-.29s-.04-.21-.12-.29c-.08-.08-.18-.12-.29-.12-.11,0-.2.04-.28.12-.08.08-.12.17-.12.28s.04.2.12.28c.08.08.17.12.28.12"/>
      <rect class="cls-3" x="69.55" y="56.51" width=".68" height="3.46"/>
      <path class="cls-3" d="m71.78,59.79c.24.16.54.24.92.24.28,0,.52-.03.73-.09.21-.06.42-.16.63-.3v-.67c-.38.28-.8.42-1.25.42-.32,0-.59-.1-.79-.29-.2-.2-.31-.46-.33-.79h2.43v-.09c0-.54-.14-.97-.41-1.29-.27-.32-.64-.48-1.1-.48s-.86.16-1.16.49c-.3.33-.45.76-.45,1.28,0,.35.07.66.21.93.14.27.33.48.57.64m.23-2.53c.16-.15.36-.22.6-.22s.44.07.59.22c.15.15.23.36.24.63h-1.74c.05-.27.15-.48.31-.63"/>
      <path class="cls-3" d="m74.93,58.66c0,.31.01.53.04.64.03.11.06.2.11.27.04.07.1.13.16.19.21.18.47.27.78.27s.6-.07.86-.22v-.64c-.27.16-.53.24-.78.24-.33,0-.49-.2-.49-.59v-1.69h1.09v-.62h-1.09v-.71l-1.29,1.26v.07h.6v1.53Z"/>
      <polygon class="cls-3" points="79.45 56.51 78.56 58.47 77.62 56.51 76.84 56.51 78.18 59.23 77.01 61.73 77.77 61.73 80.22 56.51 79.45 56.51"/>
      <path class="cls-3" d="m47.21.55c.09-.03.18-.06.27-.09h0c-3.95-.81-8.06-.56-11.9.72-3.83,1.28-7.27,3.55-9.95,6.57-1.16,1.31-2.17,2.75-3.01,4.29-.67,1.23-1.24,2.53-1.67,3.84-.38,1.14-.67,2.35-.87,3.57l-.11.66,4.66-1.55.06-.21c.31-1.19.74-2.35,1.27-3.45l3.28-1.09c-.26.93-.47,1.88-.62,2.8l-.1.66,4.4-1.47c1.6-6.79,6.83-12.75,14.27-15.23m-18.84,9.46c1.26-1.59,2.61-2.94,4.77-3.96-.66.45-1.8,2.63-2.01,3.03l-2.75.93Z"/>
      <path class="cls-3" d="m50.4,39.28c-.78-.06-1.56-.16-2.34-.32-.77-.15-1.57-.37-2.35-.64l-8.8,2.94c-.38.13-.78-.08-.9-.45-.13-.37.07-.78.45-.91l7.19-2.4-.28-.14c-1.17-.57-2.28-1.26-3.31-2.05l-.17-.13-13.18,4.4.51.47c.9.83,1.89,1.61,2.95,2.3,1.2.79,2.47,1.47,3.79,2.02.77.32,1.58.61,2.42.85l11.26-3.76c.51-.17,1.02,0,1.15.37.04.11.04.22,0,.34,0,.02-.01.05-.02.07-.1.25-.34.47-.67.58l-9.06,3.02.23.04c3.69.59,7.37.29,10.92-.9,3.51-1.17,6.72-3.19,9.28-5.84.31-.32.58-.61.82-.89l.24-.28c-.25.09-.49.18-.74.26-3.14,1.05-6.33,1.36-9.38,1.05"/>
      <path class="cls-3" d="m32.52,18.29l-3.91,1.3-2.5,5.02-5.03-2.51-1.28.43v.29c-.01.84.03,1.7.11,2.55.02.22.05.44.08.67.14,1.04.34,2.07.61,3.08.13.46.25.87.38,1.27.17.51.38,1.06.64,1.68.14.33.29.66.44.99.31.65.63,1.26.97,1.82.22.37.45.74.73,1.16.36.54.74,1.05,1.11,1.51l.18.22,3.46-1.15c-1.9-2.42-3.41-5.14-4.46-8.05-.2-.54-.03-1.08.34-1.2.19-.06.39-.01.57.12.18.13.34.34.43.59,1.06,2.93,2.61,5.65,4.56,8.06l2.88-.96c-1.83-2.49-3.26-5.25-4.24-8.2-.18-.55,0-1.08.38-1.19.19-.05.39,0,.57.14.18.13.33.35.41.6.97,2.95,2.43,5.71,4.31,8.17l3.68-1.23c-2.02-2.02-3.61-4.5-4.56-7.36-.86-2.58-1.13-5.23-.87-7.81"/>
      <path class="cls-3" d="m38.59,23.35v-1.27h.2c.1,0,.19-.08.19-.19v-.14c0-.1-.08-.19-.19-.19h-.2v-1.83h.2c.1,0,.19-.08.19-.19v-.14c0-.1-.08-.19-.19-.19h-.02v-1.82h.1c.06,0,.11-.05.11-.11v-.08c0-.06-.05-.11-.11-.11h-.21c.13-.29.17-.7.06-1-.21-.54-.73-.84-1.16-1.12.01-.06,0-.12-.02-.18-.06-.15-.22-.24-.34-.32v-.11s.06-.07.06-.12c0-.05-.03-.1-.08-.12v-.08s.05-.05.05-.09c0-.04-.02-.08-.06-.09l-.03-.81s0-.02-.02-.02c0,0-.01,0-.02.02l-.03.81s-.06.05-.06.09c0,.04.02.07.05.09v.08s-.08.07-.08.12c0,.05.03.09.07.12v.11c-.13.08-.28.17-.35.32-.02.06-.03.12-.02.18-.43.28-.95.58-1.16,1.12-.11.3-.07.71.06,1h-.21c-.06,0-.11.05-.11.11v.08c0,.06.05.11.11.11h.1v1.82h-.02c-.1,0-.19.08-.19.19v.14c0,.1.08.19.19.19h.2v1.83h-.2c-.1,0-.19.08-.19.19v.14c0,.1.08.19.19.19h.2v1.72h-.2c-.1,0-.19.08-.19.19v.14c0,.1.08.19.19.19h.2v1.03c-.22-.14-.43-.28-.65-.42v1.26c.07-.06.14-.12.17-.16v-.09l1.5-1.1.79-.58,1.99-1.46.38-.28,1.04-.76c-.77.5-1.56,1.02-2.3,1.6m-2.87-4.19s0,0,0,0v-.22s0,0,0,0c.14,0,.14.21,0,.22m.19-.2c-.03-.07-.11-.12-.19-.12h0v-1.44s0,0,0,0c.07.05.17.1.15.2.16.1.35.22.43.41.04.11.03.27-.02.37v.58c-.03-.07-.11-.13-.19-.13s-.16.05-.19.12m.83-.02c.14,0,.14.21,0,.22-.14,0-.14-.22,0-.22m-.65,0c.14,0,.14.21,0,.22-.14,0-.14-.22,0-.22m1.02,0c.14,0,.14.21,0,.22-.14,0-.14-.22,0-.22m.38.22c-.14,0-.14-.22,0-.22s.14.21,0,.22m.19-.77v.58c-.03-.08-.11-.13-.19-.13s-.15.05-.19.12c-.03-.07-.11-.12-.19-.12s-.16.05-.19.12c-.03-.07-.11-.12-.19-.12s-.16.05-.19.13v-.58c-.05-.11-.07-.26-.02-.37.08-.2.27-.31.43-.41,0-.02,0-.05,0-.07.02-.06.09-.09.13-.12,0,0,0,0,.01,0h.02s0,0,.01,0c.05.03.11.06.13.12,0,.02.01.04,0,.07.16.1.35.22.43.41.04.11.03.27-.02.37m.45.77c-.14,0-.14-.22,0-.22s.14.21,0,.22m.38,0h0c-.14,0-.14-.22,0-.22h0v.22Zm0-.32h0c-.08,0-.15.05-.19.12-.03-.07-.11-.12-.19-.12s-.16.05-.19.13v-.58c-.05-.11-.07-.26-.02-.37.08-.2.27-.31.43-.41,0-.02,0-.05,0-.07.02-.06.09-.09.13-.12,0,0,0,0,.01,0h0v1.44Z"/>
      <path class="cls-3" d="m60.36,18.93c.1,0,.19-.08.19-.19v-.04c0-.1-.08-.19-.19-.19h-.26c.19-.41.25-1,.08-1.42-.3-.76-1.03-1.19-1.65-1.59.02-.08,0-.17-.03-.25-.09-.21-.31-.34-.49-.46v-.15s.09-.09.09-.16c0-.08-.04-.14-.11-.17v-.12s.07-.07.07-.12c0-.06-.03-.11-.08-.13l-.05-1.14s-.01-.02-.02-.02c-.01,0-.02,0-.02.02l-.05,1.14s-.08.07-.08.13c0,.05.03.1.07.12v.12c-.07.03-.11.1-.11.17,0,.07.04.13.09.16v.15c-.18.11-.4.24-.49.46-.03.08-.05.17-.03.25-.61.4-1.35.82-1.65,1.59-.16.42-.1,1.01.08,1.42h-.26c-.1,0-.19.08-.19.19v.04c0,.1.08.19.19.19h.11v2.15c-.07.03-.07.15,0,.19v.25c-.17.02-.3.15-.3.33v.06c0,.18.15.33.33.33h.21v4.18h-.13v.06s-.03-.04-.04-.06h-.05c-.18,0-.33.15-.33.33v.06c0,.18.15.33.33.33h.21v1.23c-1.24-2.24-3.25-3.87-5.32-5.28-.87-.65-1.79-1.24-2.66-1.8.08-.42.02-.86-.15-1.26-.47-1.11-1.63-1.79-2.54-2.37v-.35s-.01-.01-.01-.01l-.02-.41c.16-.1.29-.24.38-.4.07-.14.11-.29.11-.45,0-.32-.15-.6-.38-.78-.05-.04-.11-.08-.17-.11l-.02-.58s.09-.07.13-.1c.14-.14.23-.34.23-.56,0-.3-.17-.56-.42-.69l-.13-3.31-.05-1.31c-.13-.04-.24-.09-.35-.14l-.06,1.41-.13,3.36c-.25.13-.42.39-.42.69,0,.27.14.51.34.65,0,0,.01.01.02.02l-.02.58s-.03.02-.04.02c-.3.17-.51.49-.51.87,0,.27.11.51.28.69.06.06.13.12.2.16v.27s-.03.51-.03.51c-.91.58-2.06,1.25-2.54,2.37-.16.38-.22.8-.16,1.2,0,.04,0,.08.02.12l-.52.38-1.04.76-.39.28-1.99,1.46-.79.58-1.5,1.1v.09s-.1.09-.17.16c-.21.18-.51.42-.6.53l.59,1.25s0,0,0,0c1.81,2.97,4.35,5.59,7.4,7.49.76.47,1.56.9,2.39,1.27,2.52,1.15,5.32,1.81,8.31,1.81,1.78,0,3.51-.21,5.16-.6l.31-.06.8-.22c.58-.17.59-.15,1.15-.36l-.02-6.09v-.38c-.06-.1-.16-.17-.29-.17h-.21v-3.19s-.01-.08,0-.11v-.2h.21c.18,0,.33-.15.33-.33v-.06c0-.18-.15-.33-.33-.33h-.21v-4.18h.21c.18,0,.33-.15.33-.33v-.06c0-.17-.13-.31-.3-.33v-2.59h.11Zm-4.43,2.49s0,0,0,0v-.31s0,0,0,0c.2,0,.2.3,0,.31m.54,0c-.2-.01-.2-.31,0-.31s.2.3,0,.31m.27-1.09v.82c-.05-.1-.15-.18-.27-.18s-.22.07-.27.17c-.05-.1-.15-.17-.27-.17,0,0,0,0,0,0v-2.04h.01c.1.06.25.14.22.28.23.15.5.31.61.59.06.16.04.38-.03.53m.65,1.09c-.2-.01-.2-.31,0-.31s.2.3,0,.31m.54,0c-.2-.01-.2-.31,0-.31s.2.3,0,.31m.54,0c-.2-.01-.2-.31,0-.31s.2.3,0,.31m.27-1.09v.82c-.04-.11-.15-.18-.27-.18s-.22.07-.27.17c-.05-.1-.15-.17-.27-.17s-.22.07-.27.17c-.05-.1-.15-.17-.27-.17s-.23.08-.27.18v-.82c-.07-.15-.09-.37-.03-.53.11-.28.38-.44.61-.59,0-.03,0-.06,0-.09.03-.08.12-.13.19-.17,0,0,.01,0,.02-.01h.02s.01,0,.02.01c.07.04.15.09.19.17.01.03.02.06,0,.09.23.15.5.31.61.59.06.16.04.38-.03.53m.64,1.09c-.2-.01-.2-.31,0-.31s.2.3,0,.31m.54,0s0,0,0,0c-.2-.01-.2-.31,0-.31,0,0,0,0,0,0v.31Zm0-.45s0,0,0,0c-.12,0-.22.07-.27.17-.05-.1-.15-.17-.27-.17s-.23.08-.27.18v-.82c-.07-.15-.09-.37-.03-.53.11-.28.38-.44.61-.59,0-.03,0-.06,0-.09.03-.08.12-.13.19-.17,0,0,.01,0,.02-.01h.01v2.04Z"/>
      <path class="cls-2" d="m44.1,3.86c.05-.02.11-.03.16-.04-.91.52-1.39,1.62-1.08,2.68.36,1.25,1.65,1.97,2.9,1.61.62-.18,1.11-.59,1.4-1.1-.2.95-.9,1.75-1.9,2.04-1.43.41-2.92-.42-3.33-1.85-.41-1.43.42-2.92,1.85-3.33"/>
    </g>
    <g>
      <path class="cls-1" d="m1.24,65.28c-.08.09-.13.2-.13.33s.04.24.13.33c.08.09.19.14.32.14s.23-.05.32-.14c.08-.09.13-.2.13-.33s-.04-.24-.13-.33c-.08-.09-.19-.14-.32-.14s-.23.05-.32.14"/>
      <path class="cls-1" d="m2.36,65.28c-.09.09-.13.2-.13.32s.04.24.13.33c.09.09.19.14.32.14s.23-.05.31-.14c.08-.09.12-.2.12-.33s-.04-.24-.12-.32c-.08-.09-.19-.13-.31-.13s-.23.04-.32.13"/>
      <path class="cls-1" d="m4.58,70.66c-.13,0-.23.05-.32.14-.08.09-.13.2-.13.33s.04.24.13.33c.08.09.19.14.32.14s.23-.05.32-.14c.08-.09.13-.2.13-.33s-.04-.24-.13-.33c-.08-.09-.19-.14-.32-.14"/>
      <path class="cls-1" d="m5.7,70.67c-.13,0-.23.04-.32.13-.09.09-.13.2-.13.32s.04.24.13.33c.09.09.19.14.32.14s.23-.05.31-.14c.08-.09.12-.2.12-.33s-.04-.24-.12-.32c-.08-.09-.19-.13-.31-.13"/>
      <path class="cls-1" d="m11.79,70.68c-.13,0-.23.04-.32.13-.09.09-.13.2-.13.32s.04.24.13.33c.09.09.19.14.32.14s.23-.05.31-.14c.08-.09.12-.2.12-.33s-.04-.24-.12-.32c-.08-.09-.19-.13-.31-.13"/>
      <path class="cls-1" d="m10.67,70.67c-.13,0-.23.05-.32.14-.08.09-.13.2-.13.33s.04.24.13.33c.08.09.19.14.32.14s.23-.05.32-.14c.08-.09.13-.2.13-.33s-.04-.24-.13-.33c-.08-.09-.19-.14-.32-.14"/>
      <path class="cls-1" d="m11.85,70.06v-3.38h-.66v2.8h-1.76v-.11c0-.71-.17-1.3-.51-1.78-.34-.48-.81-.81-1.41-1,.21-.11.4-.21.58-.3.18-.09.36-.19.53-.28.17-.09.34-.18.51-.27.17-.09.35-.19.53-.28v-.82c-.55.31-1.08.62-1.6.92-.52.3-1.05.61-1.61.91v.6c.43.04.79.14,1.08.29.29.15.53.34.71.56.18.22.31.46.39.73.08.27.12.55.12.83h-3.07v-2.8h-.66v2.8h-1.74v-2.8c-.2-.03-.39-.06-.56-.08-.17-.02-.37-.03-.59-.03-.26,0-.5.04-.72.13-.22.09-.41.21-.57.37s-.29.35-.38.58c-.09.23-.14.47-.14.75,0,.24.04.47.11.67.07.2.18.38.33.52.14.15.32.26.54.34.21.08.46.12.73.12h9.81Zm-9.21-.58h-.51c-.36,0-.63-.1-.82-.31-.19-.21-.28-.51-.28-.91,0-.17.03-.32.08-.46.05-.14.13-.26.22-.36.09-.1.2-.18.32-.24s.26-.09.4-.09c.03,0,.07,0,.12,0,.05,0,.1,0,.16,0,.06,0,.11,0,.17.01.05,0,.1.02.14.03v2.31Z"/>
      <path class="cls-1" d="m19.09,66.98c-.12-.14-.27-.24-.45-.31-.17-.07-.37-.1-.58-.1-.25,0-.48.04-.68.12-.2.08-.38.2-.53.35-.15.16-.26.35-.34.59s-.12.52-.12.84c0,.2-.02.36-.06.49-.04.13-.1.23-.17.31-.07.08-.15.13-.24.16-.09.03-.18.04-.27.04h-.09s-.99,0-.99,0v-2.8h-.66v3.45c0,.38-.08.66-.24.84-.16.18-.41.27-.76.27-.1,0-.21,0-.32-.02l-.07.66c.13.01.26.02.38.02.33,0,.6-.05.81-.14.21-.09.38-.22.51-.38.13-.16.22-.35.27-.57.05-.22.08-.46.08-.73v-.03h.99c.3,0,.54-.07.71-.2.17-.13.3-.3.36-.5.12.21.29.37.52.5.23.13.55.2.97.2h1.34v-1.76c0-.3-.03-.56-.1-.78-.07-.22-.16-.4-.28-.54m-.28,2.5h-.55c-.4,0-.7-.1-.89-.29-.19-.19-.28-.5-.28-.93,0-.16.02-.31.05-.45.03-.14.08-.26.15-.36.07-.1.16-.18.27-.24.11-.06.24-.09.4-.09.14,0,.26.03.36.08.11.05.19.13.27.22.07.1.13.21.16.34.04.13.06.26.06.41v1.31Z"/>
      <path class="cls-1" d="m21.66,64.63h-.31c-.14,0-.24-.03-.3-.09-.06-.06-.09-.13-.09-.2s.03-.13.08-.17c.05-.04.12-.06.2-.06.04,0,.08,0,.12,0,.04,0,.08,0,.13.01l.09-.35c-.06,0-.12-.02-.18-.02-.06,0-.11,0-.16,0-.21,0-.38.05-.51.15-.13.1-.2.24-.2.41,0,.09.01.17.04.22.03.06.07.11.14.15-.07-.02-.15-.04-.26-.04-.1,0-.18,0-.24,0v.42h1.45v-.42Z"/>
      <path class="cls-1" d="m22.93,68.5c0,.15-.02.28-.06.4-.04.12-.11.23-.2.31-.1.08-.22.15-.38.19-.16.05-.35.07-.59.07-.18,0-.36-.02-.55-.06-.19-.04-.37-.09-.53-.16l-.09.74c.16.04.33.07.52.1.19.03.39.04.6.04.36,0,.67-.04.92-.13.25-.09.45-.2.6-.36.15-.15.26-.33.33-.54.07-.21.1-.44.1-.69v-3.74h-.66v3.82Z"/>
      <path class="cls-1" d="m20.97,66.17v2.74l.66-.15v-3.11c-.22,0-.44,0-.67,0-.23,0-.44.03-.63.05v.39c.11,0,.22.02.33.03.12.01.22.03.31.04"/>
      <path class="cls-1" d="m24.21,64.73v.39c.11,0,.22.02.33.03.12.01.22.03.31.04v4.87h.66v-5.39c-.22,0-.44,0-.67,0-.23,0-.44.03-.63.05"/>
      <path class="cls-1" d="m30.31,66.08c.13,0,.23-.05.31-.14.08-.09.12-.2.12-.33s-.04-.24-.12-.32c-.08-.09-.19-.13-.31-.13s-.23.04-.32.13c-.09.09-.13.2-.13.32s.04.24.13.33c.09.09.19.14.32.14"/>
      <path class="cls-1" d="m28.87,65.28c-.08.09-.13.2-.13.33s.04.24.13.33c.08.09.19.14.32.14s.23-.05.32-.14c.08-.09.13-.2.13-.33s-.04-.24-.13-.33c-.08-.09-.19-.14-.32-.14s-.23.05-.32.14"/>
      <path class="cls-1" d="m33.34,70.67c-.13,0-.23.04-.32.13-.09.09-.13.2-.13.32s.04.24.13.33c.09.09.19.14.32.14s.23-.05.31-.14c.08-.09.12-.2.12-.33s-.04-.24-.12-.32c-.08-.09-.19-.13-.31-.13"/>
      <path class="cls-1" d="m32.21,70.66c-.13,0-.23.05-.32.14-.08.09-.13.2-.13.33s.04.24.13.33c.08.09.19.14.32.14s.23-.05.32-.14c.08-.09.12-.2.12-.33s-.04-.24-.12-.33c-.08-.09-.19-.14-.32-.14"/>
      <path class="cls-1" d="m37.69,66.98c-.12-.14-.27-.24-.45-.31-.17-.07-.37-.1-.58-.1-.25,0-.48.04-.68.12-.2.08-.38.2-.53.35-.15.16-.26.35-.34.59-.08.24-.12.52-.12.84,0,.2-.02.36-.06.49-.04.13-.1.23-.17.31-.07.08-.15.13-.24.16-.09.03-.18.04-.27.04h-.93v-2.8h-.66v2.8h-1.74v-2.8c-.2-.03-.39-.06-.56-.08-.17-.02-.37-.03-.59-.03-.26,0-.5.04-.72.13-.22.09-.41.21-.57.37s-.29.35-.38.58c-.09.23-.14.47-.14.75,0,.24.04.47.11.67.07.2.18.38.33.52.14.15.32.26.54.34.21.08.46.12.73.12h4.5c.3,0,.54-.07.71-.2.17-.13.3-.3.36-.5.12.21.29.37.52.5.23.13.55.2.97.2h1.34v-1.76c0-.3-.03-.56-.1-.78-.07-.22-.16-.4-.28-.54m-7.42,2.5h-.51c-.36,0-.63-.1-.82-.31-.19-.21-.28-.51-.28-.91,0-.17.03-.32.08-.46.05-.14.13-.26.22-.36.09-.1.2-.18.32-.24s.26-.09.4-.09c.03,0,.07,0,.12,0,.05,0,.1,0,.16,0,.06,0,.11,0,.17.01.05,0,.1.02.14.03v2.31Zm7.14,0h-.55c-.4,0-.7-.1-.89-.29-.19-.19-.28-.5-.28-.93,0-.16.02-.31.05-.45.03-.14.08-.26.15-.36.07-.1.16-.18.27-.24.11-.06.24-.09.4-.09.14,0,.26.03.36.08.11.05.19.13.26.22.07.1.13.21.16.34.04.13.06.26.06.41v1.31Z"/>
      <path class="cls-1" d="m39.45,65.14v3.77l.66-.15v-4.13c-.22,0-.44,0-.67,0-.23.01-.44.03-.63.05v.39c.11,0,.22.02.33.03.12.01.22.03.31.04"/>
      <path class="cls-1" d="m48.3,66.31l-.68.13c.04.24.07.5.1.79.03.29.04.6.04.96v1.3h-.68c-.19,0-.34-.05-.46-.15-.12-.1-.18-.24-.18-.42v-2.22h-.66v1.46c0,.51-.06.86-.18,1.07-.12.21-.3.31-.54.31-.21,0-.37-.07-.49-.21-.12-.14-.18-.38-.18-.72v-1.92h-.66v1.64c0,.38-.08.66-.24.86-.16.2-.37.29-.63.29h-.12s-.07,0-.07,0c-.31,0-.55-.09-.72-.27.09-.23.13-.49.13-.78v-3.74h-.66v3.82c0,.15-.02.28-.06.4-.04.12-.11.23-.2.31-.1.08-.22.15-.38.19-.16.05-.35.07-.59.07-.18,0-.36-.02-.55-.06s-.37-.09-.53-.16l-.09.74c.16.04.33.07.52.1.19.03.39.04.6.04.34,0,.63-.04.86-.11.24-.07.44-.18.59-.32.13.11.28.19.46.26.17.06.35.09.53.09h0s.02,0,.02,0h.32c.18,0,.36-.05.54-.14.18-.09.33-.24.44-.45.08.22.21.39.39.5.18.11.37.17.56.17.31,0,.55-.06.73-.18.18-.12.31-.28.4-.49.08.2.2.35.36.45.16.1.38.15.66.15h1.4v-2.02c0-.32-.01-.64-.03-.94-.02-.3-.05-.57-.09-.79"/>
      <path class="cls-1" d="m51.83,68.5c0,.15-.02.28-.06.4-.04.12-.11.23-.2.31-.1.08-.22.15-.38.19-.16.05-.35.07-.59.07-.18,0-.36-.02-.55-.06-.19-.04-.37-.09-.53-.16l-.09.74c.16.04.33.07.52.1.19.03.39.04.6.04.36,0,.67-.04.92-.13.25-.09.45-.2.6-.36.15-.15.26-.33.33-.54.07-.21.1-.44.1-.69v-3.74h-.66v3.82Z"/>
      <path class="cls-1" d="m49.87,65.14v3.77l.66-.15v-4.13c-.22,0-.44,0-.67,0-.23.01-.44.03-.63.05v.39c.11,0,.22.02.33.03.12.01.22.03.31.04"/>
      <path class="cls-1" d="m50.32,71.49c-.06-.06-.09-.12-.09-.2s.03-.13.08-.17c.05-.04.12-.06.2-.06.04,0,.08,0,.12,0,.04,0,.08,0,.13.01l.09-.35c-.06,0-.12-.02-.18-.02-.06,0-.11,0-.16,0-.21,0-.38.05-.51.15-.13.1-.2.24-.2.41,0,.09.01.17.04.22.03.06.07.11.14.15-.07-.02-.15-.04-.26-.04-.1,0-.18,0-.24,0v.42h1.45v-.42h-.31c-.14,0-.24-.03-.3-.09"/>
      <path class="cls-1" d="m53.23,64.73v.39c.11,0,.22.02.33.03.11.01.22.03.31.04v4.87h.66v-5.39c-.22,0-.44,0-.67,0-.23,0-.44.03-.63.05"/>
      <path class="cls-1" d="m58.21,66.07c.13,0,.23-.05.32-.14.08-.09.12-.2.12-.33s-.04-.24-.12-.33c-.08-.09-.19-.14-.32-.14s-.23.05-.32.14c-.08.09-.12.2-.12.33s.04.24.12.33c.08.09.19.14.32.14"/>
      <path class="cls-1" d="m59.01,65.28c-.09.09-.13.2-.13.32s.04.24.13.33c.09.09.19.14.32.14s.23-.05.31-.14c.08-.09.12-.2.12-.33s-.04-.24-.12-.32c-.08-.09-.19-.13-.31-.13s-.23.04-.32.13"/>
      <path class="cls-1" d="m61.23,70.66c-.13,0-.23.05-.32.14-.08.09-.13.2-.13.33s.04.24.13.33c.08.09.19.14.32.14s.23-.05.32-.14c.08-.09.12-.2.12-.33s-.04-.24-.12-.33c-.08-.09-.19-.14-.32-.14"/>
      <path class="cls-1" d="m62.36,70.67c-.13,0-.23.04-.32.13-.09.09-.13.2-.13.32s.04.24.13.33c.09.09.19.14.32.14s.23-.05.31-.14c.08-.09.12-.2.12-.33s-.04-.24-.12-.32c-.08-.09-.19-.13-.31-.13"/>
      <path class="cls-1" d="m73.32,70.65c-.12,0-.22.04-.31.13-.08.09-.12.19-.12.31s.04.23.12.32c.08.09.18.13.31.13s.22-.04.3-.13c.08-.09.11-.19.11-.32s-.04-.22-.11-.31c-.08-.09-.18-.13-.3-.13"/>
      <path class="cls-1" d="m76.78,69.48h-1.7v-1c0-.36-.06-.65-.18-.89-.12-.23-.28-.42-.48-.55-.2-.13-.43-.23-.68-.28-.25-.05-.51-.08-.78-.08-.16,0-.29,0-.4,0-.11,0-.2.01-.29.02l-.07.58c.08,0,.18-.02.3-.02.12,0,.24,0,.38,0,.52,0,.9.1,1.16.31.26.21.39.56.39,1.06v.84h-3.33v-1.18c0-.3-.03-.57-.1-.78-.07-.22-.16-.4-.28-.54-.12-.14-.27-.24-.45-.31-.17-.07-.37-.1-.58-.1-.25,0-.48.04-.68.12-.2.08-.38.2-.53.35-.15.16-.26.35-.34.59s-.12.52-.12.84c0,.2-.02.36-.06.49-.04.13-.1.23-.17.31-.07.08-.15.13-.24.16-.09.03-.18.04-.27.04h-.08s-.1-.01-.1-.01c-.21,0-.4-.03-.58-.1-.17-.06-.33-.15-.48-.26.25-.22.44-.44.57-.68.13-.24.19-.46.19-.67,0-.18-.03-.34-.1-.5-.06-.15-.16-.29-.29-.4-.13-.12-.29-.21-.47-.27-.19-.07-.41-.1-.67-.1-.3,0-.61.06-.92.18-.31.12-.61.27-.89.46l-.1.69c.19.09.35.17.48.25.13.08.26.17.38.26.11.1.23.2.34.33.11.12.24.27.38.44-.54.24-1.09.36-1.64.36h-.25s-.7.01-.7.01v-2.8h-.66v2.8h-1.74v-2.8c-.2-.03-.39-.06-.56-.08-.17-.02-.37-.03-.59-.03-.26,0-.5.04-.72.13-.22.09-.41.21-.57.37-.16.16-.29.35-.38.58-.09.23-.14.47-.14.75,0,.24.04.47.11.67.07.2.18.38.33.52.14.15.32.26.54.34.21.08.46.12.73.12h4.71c.33,0,.66-.05,1.01-.14.34-.09.68-.22,1-.39.23.17.47.3.74.39.26.09.56.14.89.14h0s.01,0,.01,0h.14c.3,0,.53-.07.7-.2.17-.13.3-.3.36-.5.12.21.29.37.52.5.23.13.55.2.97.2h7.69v-5.39h-.66v4.8Zm-17.49,0h-.51c-.36,0-.63-.1-.82-.31-.19-.21-.28-.51-.28-.91,0-.17.03-.32.08-.46.05-.14.13-.26.22-.36.09-.1.2-.18.32-.24.13-.06.26-.09.4-.09.03,0,.07,0,.12,0,.05,0,.1,0,.16,0,.06,0,.11,0,.17.01.05,0,.1.02.14.03v2.31Zm6.22-.71c-.24-.33-.48-.6-.72-.8-.25-.21-.51-.34-.79-.41.19-.13.38-.23.57-.32.19-.08.41-.13.64-.13.27,0,.49.06.65.19.16.13.24.3.24.52,0,.16-.06.32-.17.48-.11.16-.25.32-.41.46m4.91.71h-.55c-.4,0-.7-.1-.89-.29-.19-.19-.28-.5-.28-.93,0-.16.02-.31.05-.45.03-.14.08-.26.15-.36.07-.1.16-.18.27-.24.11-.06.24-.09.4-.09.14,0,.26.03.36.08.11.05.19.13.26.22.07.1.13.21.16.34.04.13.06.26.06.41v1.31Z"/>
      <path class="cls-1" d="m78.25,64.73v.39c.11,0,.22.02.33.03.11.01.22.03.31.04v4.87h.66v-5.39c-.22,0-.44,0-.67,0-.23,0-.44.03-.63.05"/>
      <path class="cls-1" d="m1.43,58.41h2.24l.7,1.56h.77l-2.35-5.28h-.53l-2.25,5.28h.77l.66-1.56Zm1.08-2.57l.85,1.9h-1.63l.79-1.9Z"/>
      <path class="cls-1" d="m6.22,57.46c.15-.17.29-.28.41-.35.12-.07.25-.1.39-.1.26,0,.43.08.54.23.1.15.15.42.15.8v1.92h.69v-2.51c.25-.29.51-.43.79-.43.22,0,.39.08.51.23.12.15.18.37.18.66v2.05h.68v-2.04c0-.5-.11-.88-.33-1.12-.22-.25-.49-.37-.83-.37-.4,0-.78.21-1.15.63-.24-.42-.58-.62-1.02-.62-.33,0-.67.17-1.02.52v-.45h-.68v3.46h.68v-2.51Z"/>
      <path class="cls-1" d="m12.07,59.79c.24.16.54.24.92.24.28,0,.52-.03.73-.09.21-.06.42-.16.63-.3v-.67c-.38.28-.8.42-1.25.42-.32,0-.59-.1-.79-.29-.2-.2-.31-.46-.33-.79h2.43v-.09c0-.54-.14-.97-.41-1.29-.27-.32-.64-.48-1.1-.48s-.86.16-1.16.49c-.3.33-.45.76-.45,1.28,0,.35.07.66.21.93.14.27.33.48.57.64m.23-2.53c.16-.15.36-.22.6-.22s.44.07.59.22c.15.15.23.36.24.63h-1.74c.05-.27.15-.48.31-.63"/>
      <path class="cls-1" d="m15.83,58.16c0-.29.08-.54.24-.75.16-.21.35-.32.57-.32.2,0,.42.11.66.34l.36-.6c-.28-.26-.55-.39-.81-.39-.33,0-.66.27-.99.8l-.04.06v-.79h-.69v3.46h.69v-1.81Z"/>
      <rect class="cls-1" x="18.11" y="56.51" width=".68" height="3.46"/>
      <path class="cls-1" d="m18.45,55.87c.11,0,.21-.04.29-.12s.12-.18.12-.29-.04-.21-.12-.29c-.08-.08-.18-.12-.29-.12-.11,0-.2.04-.28.12-.08.08-.12.17-.12.28s.04.2.12.28c.08.08.17.12.28.12"/>
      <path class="cls-1" d="m22.33,59.84v-.68c-.34.15-.64.23-.91.23-.36,0-.65-.1-.87-.31-.21-.21-.32-.49-.32-.84s.1-.61.3-.83c.2-.22.45-.32.76-.32s.62.11.96.33v-.73c-.21-.09-.38-.16-.52-.19-.14-.03-.3-.05-.48-.05-.51,0-.92.17-1.24.5-.31.33-.47.77-.47,1.31s.16.97.48,1.29c.32.32.75.48,1.29.48.33,0,.66-.06,1.01-.19"/>
      <path class="cls-1" d="m25.24,59.36v-1.47c0-.29,0-.49-.02-.59-.02-.1-.05-.21-.11-.31-.06-.1-.13-.19-.2-.25-.23-.2-.52-.29-.9-.29-.5,0-.88.16-1.15.47v.75c.35-.39.72-.58,1.09-.58.42,0,.62.21.62.62v.18l-.88.3c-.29.1-.51.24-.67.41-.16.17-.23.37-.23.58,0,.24.08.44.24.6.16.16.36.24.6.24.33,0,.64-.11.93-.34.05.23.23.35.52.35.1,0,.2-.02.29-.05.09-.04.22-.1.37-.2v-.42c-.18.12-.3.18-.39.18s-.12-.06-.12-.18m-.67-.08c-.19.18-.39.27-.6.27-.15,0-.26-.05-.36-.14-.09-.09-.14-.21-.14-.35s.05-.26.14-.35c.1-.09.26-.19.49-.28l.46-.18v1.03Z"/>
      <path class="cls-1" d="m28.35,57.24c.11.15.16.4.16.76v1.97h.68v-1.98c0-.42-.05-.73-.14-.92-.1-.19-.24-.35-.42-.46-.19-.11-.39-.17-.6-.17-.39,0-.74.17-1.04.51v-.44h-.7v3.46h.7v-2.47c.23-.32.5-.48.82-.48.25,0,.43.08.54.23"/>
      <polygon class="cls-1" points="33.02 55.89 34.66 57.91 34.8 57.91 36.41 55.89 36.41 59.97 37.17 59.97 37.17 54.72 36.46 54.72 34.73 56.88 32.98 54.72 32.27 54.72 32.27 59.97 33.02 59.97 33.02 55.89"/>
      <path class="cls-1" d="m41.11,59.54c.35-.33.53-.74.53-1.24s-.17-.94-.52-1.28c-.35-.34-.79-.51-1.31-.51s-.97.17-1.32.51c-.35.34-.53.76-.53,1.26s.17.92.52,1.25c.35.33.78.5,1.3.5s.98-.16,1.33-.49m-2.46-1.27c0-.33.11-.61.32-.82.21-.22.48-.32.81-.32s.62.11.84.32c.22.22.33.49.33.82s-.11.6-.32.81c-.21.21-.49.32-.82.32s-.62-.1-.83-.31c-.22-.21-.32-.48-.32-.81"/>
      <path class="cls-1" d="m43.34,60.03c.35,0,.63-.09.85-.27.22-.18.33-.41.33-.7,0-.4-.29-.76-.86-1.08l-.24-.14c-.19-.1-.32-.19-.39-.26-.07-.07-.11-.15-.11-.23,0-.09.04-.17.12-.22.08-.06.19-.08.32-.08.26,0,.59.12,1,.37v-.68c-.36-.19-.7-.29-1.04-.29s-.59.08-.8.25c-.21.17-.31.38-.31.65,0,.21.07.4.2.57.14.17.42.38.87.63.22.13.36.22.43.29.07.07.1.15.1.25s-.05.18-.15.25c-.1.07-.23.11-.37.11s-.31-.04-.51-.13c-.2-.08-.4-.19-.59-.33v.74c.24.12.44.2.6.24.16.04.34.07.55.07"/>
      <rect class="cls-1" x="45.29" y="54.72" width=".68" height="5.25"/>
      <path class="cls-1" d="m49.8,58.96c-.38.28-.8.42-1.25.42-.32,0-.59-.1-.79-.29-.2-.2-.31-.46-.33-.79h2.43v-.09c0-.54-.14-.97-.41-1.29-.27-.32-.64-.48-1.1-.48s-.86.16-1.16.49c-.3.33-.45.76-.45,1.28,0,.35.07.66.21.93.14.27.33.48.57.64.24.16.54.24.92.24.28,0,.52-.03.73-.09.21-.06.42-.16.63-.3v-.67Zm-2.05-1.7c.16-.15.36-.22.6-.22s.44.07.59.22c.15.15.23.36.24.63h-1.74c.05-.27.15-.48.31-.63"/>
      <path class="cls-1" d="m54.39,56.44c-.4,0-.78.21-1.15.63-.24-.42-.58-.62-1.02-.62-.33,0-.67.17-1.02.52v-.45h-.68v3.46h.68v-2.51c.15-.17.29-.28.41-.35.12-.07.25-.1.39-.1.26,0,.43.08.54.23.1.15.15.42.15.8v1.92h.69v-2.51c.25-.29.51-.43.79-.43.22,0,.39.08.51.23.12.15.18.37.18.66v2.05h.68v-2.04c0-.5-.11-.88-.33-1.12-.22-.25-.49-.37-.83-.37"/>
      <path class="cls-1" d="m59.35,57.42l.57.35c.46.29.69.59.69.91,0,.2-.08.36-.24.49-.16.13-.35.2-.59.2-.53,0-1-.26-1.41-.77v.95c.43.32.9.48,1.42.48.45,0,.82-.13,1.1-.39.28-.26.42-.61.42-1.03,0-.59-.32-1.08-.96-1.46l-.57-.34c-.26-.15-.44-.29-.56-.43-.12-.14-.17-.28-.17-.44,0-.18.08-.32.24-.44.16-.11.36-.17.6-.17.44,0,.84.18,1.22.55v-.85c-.37-.25-.77-.37-1.21-.37s-.83.13-1.12.39c-.29.26-.43.59-.43,1.01,0,.28.08.52.23.73.15.21.41.43.76.65"/>
      <path class="cls-1" d="m63.63,60.03c.54,0,.98-.16,1.33-.49.35-.33.53-.74.53-1.24s-.17-.94-.52-1.28c-.35-.34-.79-.51-1.31-.51s-.97.17-1.32.51c-.35.34-.53.76-.53,1.26s.17.92.52,1.25c.35.33.78.5,1.3.5m-.82-2.59c.21-.22.48-.32.81-.32s.62.11.84.32c.22.22.33.49.33.82s-.11.6-.32.81c-.21.21-.49.32-.82.32s-.62-.1-.83-.31c-.22-.21-.32-.48-.32-.81s.11-.61.32-.82"/>
      <path class="cls-1" d="m67.79,60.03c.33,0,.66-.06,1.01-.19v-.68c-.34.15-.64.23-.91.23-.36,0-.65-.1-.87-.31-.21-.21-.32-.49-.32-.84s.1-.61.3-.83c.2-.22.45-.32.76-.32s.62.11.96.33v-.73c-.21-.09-.38-.16-.52-.19s-.3-.05-.48-.05c-.51,0-.92.17-1.24.5-.31.33-.47.77-.47,1.31s.16.97.48,1.29c.32.32.75.48,1.29.48"/>
      <path class="cls-1" d="m69.88,55.87c.11,0,.21-.04.29-.12.08-.08.12-.18.12-.29s-.04-.21-.12-.29c-.08-.08-.18-.12-.29-.12-.11,0-.2.04-.28.12-.08.08-.12.17-.12.28s.04.2.12.28c.08.08.17.12.28.12"/>
      <rect class="cls-1" x="69.55" y="56.51" width=".68" height="3.46"/>
      <path class="cls-1" d="m71.78,59.79c.24.16.54.24.92.24.28,0,.52-.03.73-.09.21-.06.42-.16.63-.3v-.67c-.38.28-.8.42-1.25.42-.32,0-.59-.1-.79-.29-.2-.2-.31-.46-.33-.79h2.43v-.09c0-.54-.14-.97-.41-1.29-.27-.32-.64-.48-1.1-.48s-.86.16-1.16.49c-.3.33-.45.76-.45,1.28,0,.35.07.66.21.93.14.27.33.48.57.64m.23-2.53c.16-.15.36-.22.6-.22s.44.07.59.22c.15.15.23.36.24.63h-1.74c.05-.27.15-.48.31-.63"/>
      <path class="cls-1" d="m74.93,58.66c0,.31.01.53.04.64.03.11.06.2.11.27.04.07.1.13.16.19.21.18.47.27.78.27s.6-.07.86-.22v-.64c-.27.16-.53.24-.78.24-.33,0-.49-.2-.49-.59v-1.69h1.09v-.62h-1.09v-.71l-1.29,1.26v.07h.6v1.53Z"/>
      <polygon class="cls-1" points="79.45 56.51 78.56 58.47 77.62 56.51 76.84 56.51 78.18 59.23 77.01 61.73 77.77 61.73 80.22 56.51 79.45 56.51"/>
      <path class="cls-1" d="m47.21.55c.09-.03.18-.06.27-.09h0c-3.95-.81-8.06-.56-11.9.72-3.83,1.28-7.27,3.55-9.95,6.57-1.16,1.31-2.17,2.75-3.01,4.29-.67,1.23-1.24,2.53-1.67,3.84-.38,1.14-.67,2.35-.87,3.57l-.11.66,4.66-1.55.06-.21c.31-1.19.74-2.35,1.27-3.45l3.28-1.09c-.26.93-.47,1.88-.62,2.8l-.1.66,4.4-1.47c1.6-6.79,6.83-12.75,14.27-15.23m-18.84,9.46c1.26-1.59,2.61-2.94,4.77-3.96-.66.45-1.8,2.63-2.01,3.03l-2.75.93Z"/>
      <path class="cls-1" d="m50.4,39.28c-.78-.06-1.56-.16-2.34-.32-.77-.15-1.57-.37-2.35-.64l-8.8,2.94c-.38.13-.78-.08-.9-.45-.13-.37.07-.78.45-.91l7.19-2.4-.28-.14c-1.17-.57-2.28-1.26-3.31-2.05l-.17-.13-13.18,4.4.51.47c.9.83,1.89,1.61,2.95,2.3,1.2.79,2.47,1.47,3.79,2.02.77.32,1.58.61,2.42.85l11.26-3.76c.51-.17,1.02,0,1.15.37.04.11.04.22,0,.34,0,.02-.01.05-.02.07-.1.25-.34.47-.67.58l-9.06,3.02.23.04c3.69.59,7.37.29,10.92-.9,3.51-1.17,6.72-3.19,9.28-5.84.31-.32.58-.61.82-.89l.24-.28c-.25.09-.49.18-.74.26-3.14,1.05-6.33,1.36-9.38,1.05"/>
      <path class="cls-1" d="m32.52,18.29l-3.91,1.3-2.5,5.02-5.03-2.51-1.28.43v.29c-.01.84.03,1.7.11,2.55.02.22.05.44.08.67.14,1.04.34,2.07.61,3.08.13.46.25.87.38,1.27.17.51.38,1.06.64,1.68.14.33.29.66.44.99.31.65.63,1.26.97,1.82.22.37.45.74.73,1.16.36.54.74,1.05,1.11,1.51l.18.22,3.46-1.15c-1.9-2.42-3.41-5.14-4.46-8.05-.2-.54-.03-1.08.34-1.2.19-.06.39-.01.57.12.18.13.34.34.43.59,1.06,2.93,2.61,5.65,4.56,8.06l2.88-.96c-1.83-2.49-3.26-5.25-4.24-8.2-.18-.55,0-1.08.38-1.19.19-.05.39,0,.57.14.18.13.33.35.41.6.97,2.95,2.43,5.71,4.31,8.17l3.68-1.23c-2.02-2.02-3.61-4.5-4.56-7.36-.86-2.58-1.13-5.23-.87-7.81"/>
      <path class="cls-1" d="m38.59,23.35v-1.27h.2c.1,0,.19-.08.19-.19v-.14c0-.1-.08-.19-.19-.19h-.2v-1.83h.2c.1,0,.19-.08.19-.19v-.14c0-.1-.08-.19-.19-.19h-.02v-1.82h.1c.06,0,.11-.05.11-.11v-.08c0-.06-.05-.11-.11-.11h-.21c.13-.29.17-.7.06-1-.21-.54-.73-.84-1.16-1.12.01-.06,0-.12-.02-.18-.06-.15-.22-.24-.34-.32v-.11s.06-.07.06-.12c0-.05-.03-.1-.08-.12v-.08s.05-.05.05-.09c0-.04-.02-.08-.06-.09l-.03-.81s0-.02-.02-.02c0,0-.01,0-.02.02l-.03.81s-.06.05-.06.09c0,.04.02.07.05.09v.08s-.08.07-.08.12c0,.05.03.09.07.12v.11c-.13.08-.28.17-.35.32-.02.06-.03.12-.02.18-.43.28-.95.58-1.16,1.12-.11.3-.07.71.06,1h-.21c-.06,0-.11.05-.11.11v.08c0,.06.05.11.11.11h.1v1.82h-.02c-.1,0-.19.08-.19.19v.14c0,.1.08.19.19.19h.2v1.83h-.2c-.1,0-.19.08-.19.19v.14c0,.1.08.19.19.19h.2v1.72h-.2c-.1,0-.19.08-.19.19v.14c0,.1.08.19.19.19h.2v1.03c-.22-.14-.43-.28-.65-.42v1.26c.07-.06.14-.12.17-.16v-.09l1.5-1.1.79-.58,1.99-1.46.38-.28,1.04-.76c-.77.5-1.56,1.02-2.3,1.6m-2.87-4.19s0,0,0,0v-.22s0,0,0,0c.14,0,.14.21,0,.22m.19-.2c-.03-.07-.11-.12-.19-.12h0v-1.44s0,0,0,0c.07.05.17.1.15.2.16.1.35.22.43.41.04.11.03.27-.02.37v.58c-.03-.07-.11-.13-.19-.13s-.16.05-.19.12m.83-.02c.14,0,.14.21,0,.22-.14,0-.14-.22,0-.22m-.65,0c.14,0,.14.21,0,.22-.14,0-.14-.22,0-.22m1.02,0c.14,0,.14.21,0,.22-.14,0-.14-.22,0-.22m.38.22c-.14,0-.14-.22,0-.22s.14.21,0,.22m.19-.77v.58c-.03-.08-.11-.13-.19-.13s-.15.05-.19.12c-.03-.07-.11-.12-.19-.12s-.16.05-.19.12c-.03-.07-.11-.12-.19-.12s-.16.05-.19.13v-.58c-.05-.11-.07-.26-.02-.37.08-.2.27-.31.43-.41,0-.02,0-.05,0-.07.02-.06.09-.09.13-.12,0,0,0,0,.01,0h.02s0,0,.01,0c.05.03.11.06.13.12,0,.02.01.04,0,.07.16.1.35.22.43.41.04.11.03.27-.02.37m.45.77c-.14,0-.14-.22,0-.22s.14.21,0,.22m.38,0h0c-.14,0-.14-.22,0-.22h0v.22Zm0-.32h0c-.08,0-.15.05-.19.12-.03-.07-.11-.12-.19-.12s-.16.05-.19.13v-.58c-.05-.11-.07-.26-.02-.37.08-.2.27-.31.43-.41,0-.02,0-.05,0-.07.02-.06.09-.09.13-.12,0,0,0,0,.01,0h0v1.44Z"/>
      <path class="cls-1" d="m60.36,18.93c.1,0,.19-.08.19-.19v-.04c0-.1-.08-.19-.19-.19h-.26c.19-.41.25-1,.08-1.42-.3-.76-1.03-1.19-1.65-1.59.02-.08,0-.17-.03-.25-.09-.21-.31-.34-.49-.46v-.15s.09-.09.09-.16c0-.08-.04-.14-.11-.17v-.12s.07-.07.07-.12c0-.06-.03-.11-.08-.13l-.05-1.14s-.01-.02-.02-.02c-.01,0-.02,0-.02.02l-.05,1.14s-.08.07-.08.13c0,.05.03.1.07.12v.12c-.07.03-.11.1-.11.17,0,.07.04.13.09.16v.15c-.18.11-.4.24-.49.46-.03.08-.05.17-.03.25-.61.4-1.35.82-1.65,1.59-.16.42-.1,1.01.08,1.42h-.26c-.1,0-.19.08-.19.19v.04c0,.1.08.19.19.19h.11v2.15c-.07.03-.07.15,0,.19v.25c-.17.02-.3.15-.3.33v.06c0,.18.15.33.33.33h.21v4.18h-.13v.06s-.03-.04-.04-.06h-.05c-.18,0-.33.15-.33.33v.06c0,.18.15.33.33.33h.21v1.23c-1.24-2.24-3.25-3.87-5.32-5.28-.87-.65-1.79-1.24-2.66-1.8.08-.42.02-.86-.15-1.26-.47-1.11-1.63-1.79-2.54-2.37v-.35s-.01-.01-.01-.01l-.02-.41c.16-.1.29-.24.38-.4.07-.14.11-.29.11-.45,0-.32-.15-.6-.38-.78-.05-.04-.11-.08-.17-.11l-.02-.58s.09-.07.13-.1c.14-.14.23-.34.23-.56,0-.3-.17-.56-.42-.69l-.13-3.31-.05-1.31c-.13-.04-.24-.09-.35-.14l-.06,1.41-.13,3.36c-.25.13-.42.39-.42.69,0,.27.14.51.34.65,0,0,.01.01.02.02l-.02.58s-.03.02-.04.02c-.3.17-.51.49-.51.87,0,.27.11.51.28.69.06.06.13.12.2.16v.27s-.03.51-.03.51c-.91.58-2.06,1.25-2.54,2.37-.16.38-.22.8-.16,1.2,0,.04,0,.08.02.12l-.52.38-1.04.76-.39.28-1.99,1.46-.79.58-1.5,1.1v.09s-.1.09-.17.16c-.21.18-.51.42-.6.53l.59,1.25s0,0,0,0c1.81,2.97,4.35,5.59,7.4,7.49.76.47,1.56.9,2.39,1.27,2.52,1.15,5.32,1.81,8.31,1.81,1.78,0,3.51-.21,5.16-.6l.31-.06.8-.22c.58-.17.59-.15,1.15-.36l-.02-6.09v-.38c-.06-.1-.16-.17-.29-.17h-.21v-3.19s-.01-.08,0-.11v-.2h.21c.18,0,.33-.15.33-.33v-.06c0-.18-.15-.33-.33-.33h-.21v-4.18h.21c.18,0,.33-.15.33-.33v-.06c0-.17-.13-.31-.3-.33v-2.59h.11Zm-4.43,2.49s0,0,0,0v-.31s0,0,0,0c.2,0,.2.3,0,.31m.54,0c-.2-.01-.2-.31,0-.31s.2.3,0,.31m.27-1.09v.82c-.05-.1-.15-.18-.27-.18s-.22.07-.27.17c-.05-.1-.15-.17-.27-.17,0,0,0,0,0,0v-2.04h.01c.1.06.25.14.22.28.23.15.5.31.61.59.06.16.04.38-.03.53m.65,1.09c-.2-.01-.2-.31,0-.31s.2.3,0,.31m.54,0c-.2-.01-.2-.31,0-.31s.2.3,0,.31m.54,0c-.2-.01-.2-.31,0-.31s.2.3,0,.31m.27-1.09v.82c-.04-.11-.15-.18-.27-.18s-.22.07-.27.17c-.05-.1-.15-.17-.27-.17s-.22.07-.27.17c-.05-.1-.15-.17-.27-.17s-.23.08-.27.18v-.82c-.07-.15-.09-.37-.03-.53.11-.28.38-.44.61-.59,0-.03,0-.06,0-.09.03-.08.12-.13.19-.17,0,0,.01,0,.02-.01h.02s.01,0,.02.01c.07.04.15.09.19.17.01.03.02.06,0,.09.23.15.5.31.61.59.06.16.04.38-.03.53m.64,1.09c-.2-.01-.2-.31,0-.31s.2.3,0,.31m.54,0s0,0,0,0c-.2-.01-.2-.31,0-.31,0,0,0,0,0,0v.31Zm0-.45s0,0,0,0c-.12,0-.22.07-.27.17-.05-.1-.15-.17-.27-.17s-.23.08-.27.18v-.82c-.07-.15-.09-.37-.03-.53.11-.28.38-.44.61-.59,0-.03,0-.06,0-.09.03-.08.12-.13.19-.17,0,0,.01,0,.02-.01h.01v2.04Z"/>
      <path class="cls-1" d="m44.1,3.86c.05-.02.11-.03.16-.04-.91.52-1.39,1.62-1.08,2.68.36,1.25,1.65,1.97,2.9,1.61.62-.18,1.11-.59,1.4-1.1-.2.95-.9,1.75-1.9,2.04-1.43.41-2.92-.42-3.33-1.85-.41-1.43.42-2.92,1.85-3.33"/>
    </g>
  </g>
</svg>