<?xml version="1.0" encoding="UTF-8"?>
<svg id="Layer_1" data-name="Layer 1" xmlns="http://www.w3.org/2000/svg" viewBox="0 0 70.57 69.14">
  <defs>
    <style>
      .cls-1 {
        fill: #2f2f2f;
      }

      .cls-1, .cls-2, .cls-3, .cls-4, .cls-5, .cls-6, .cls-7, .cls-8, .cls-9, .cls-10, .cls-11, .cls-12, .cls-13, .cls-14, .cls-15, .cls-16, .cls-17, .cls-18, .cls-19 {
        stroke-width: 0px;
      }

      .cls-2 {
        fill: #060606;
      }

      .cls-3 {
        fill: #f0f0f0;
      }

      .cls-4 {
        fill: #e9e9e9;
      }

      .cls-5 {
        fill: #232323;
      }

      .cls-6 {
        fill: #3b3b3b;
      }

      .cls-7 {
        fill: #0c0c0c;
      }

      .cls-8 {
        fill: #888;
      }

      .cls-9 {
        fill: #272727;
      }

      .cls-10 {
        fill: #464646;
      }

      .cls-11 {
        fill: #cdab74;
      }

      .cls-12 {
        fill: #282828;
      }

      .cls-13 {
        fill: #3e3e3e;
      }

      .cls-14 {
        fill: #8f8f8f;
      }

      .cls-15 {
        fill: #1e1e1e;
      }

      .cls-16 {
        fill: #555;
      }

      .cls-17 {
        fill: #070707;
      }

      .cls-18 {
        fill: #080808;
      }

      .cls-19 {
        fill: #131313;
      }
    </style>
  </defs>
  <g>
    <rect class="cls-2" x="67.75" y="66.34" width="2.82" height="2.76"/>
    <rect class="cls-2" x="59.28" y="66.34" width="2.82" height="2.76"/>
    <rect class="cls-2" x="45.17" y="66.34" width="2.82" height="2.76"/>
    <rect class="cls-2" x="33.87" y="66.34" width="2.82" height="2.76"/>
    <rect class="cls-2" x="31.05" y="66.34" width="2.82" height="2.76"/>
    <rect class="cls-2" x="28.23" y="66.34" width="2.82" height="2.76"/>
    <rect class="cls-2" x="25.41" y="66.34" width="2.82" height="2.76"/>
    <rect class="cls-2" x="22.58" y="66.34" width="2.82" height="2.76"/>
    <rect class="cls-3" x="16.94" y="66.34" width="2.82" height="2.76"/>
    <rect class="cls-2" x="14.11" y="66.34" width="2.82" height="2.76"/>
    <rect class="cls-2" x="11.29" y="66.34" width="2.82" height="2.76"/>
    <rect class="cls-2" x="8.47" y="66.34" width="2.82" height="2.76"/>
    <rect class="cls-2" x="5.65" y="66.34" width="2.82" height="2.76"/>
    <rect class="cls-2" x="2.82" y="66.34" width="2.82" height="2.76"/>
    <rect class="cls-16" x="56.46" y="63.57" width="2.82" height="2.76"/>
    <rect class="cls-9" x="53.63" y="63.57" width="2.82" height="2.76"/>
    <rect class="cls-1" x="50.81" y="63.57" width="2.82" height="2.76"/>
    <rect class="cls-16" x="45.17" y="63.57" width="2.82" height="2.76"/>
    <rect class="cls-9" x="42.34" y="63.57" width="2.82" height="2.76"/>
    <rect class="cls-1" x="39.52" y="63.57" width="2.82" height="2.76"/>
    <rect class="cls-13" x="25.41" y="63.57" width="2.82" height="2.76"/>
    <rect class="cls-5" x="22.58" y="63.57" width="2.82" height="2.76"/>
    <rect class="cls-2" x="16.94" y="63.57" width="2.82" height="2.76"/>
    <rect class="cls-2" y="63.57" width="2.82" height="2.76"/>
    <rect class="cls-12" x="67.75" y="60.81" width="2.82" height="2.76"/>
    <rect class="cls-10" x="64.93" y="60.81" width="2.82" height="2.76"/>
    <rect class="cls-19" x="59.28" y="60.81" width="2.82" height="2.76"/>
    <rect class="cls-12" x="56.46" y="60.81" width="2.82" height="2.76"/>
    <rect class="cls-2" x="53.63" y="60.81" width="2.82" height="2.76"/>
    <rect class="cls-19" x="47.99" y="60.81" width="2.82" height="2.76"/>
    <rect class="cls-12" x="45.17" y="60.81" width="2.82" height="2.76"/>
    <rect class="cls-19" x="36.7" y="60.81" width="2.82" height="2.76"/>
    <rect class="cls-2" x="31.05" y="60.81" width="2.82" height="2.76"/>
    <rect class="cls-18" x="28.23" y="60.81" width="2.82" height="2.76"/>
    <rect class="cls-19" x="25.41" y="60.81" width="2.82" height="2.76"/>
    <rect class="cls-2" x="22.58" y="60.81" width="2.82" height="2.76"/>
    <rect class="cls-2" x="16.94" y="60.81" width="2.82" height="2.76"/>
    <rect class="cls-17" x="11.29" y="60.81" width="2.82" height="2.76"/>
    <rect class="cls-2" x="8.47" y="60.81" width="2.82" height="2.76"/>
    <rect class="cls-15" x="5.65" y="60.81" width="2.82" height="2.76"/>
    <rect class="cls-2" y="60.81" width="2.82" height="2.76"/>
    <rect class="cls-5" x="64.93" y="58.05" width="2.82" height="2.76"/>
    <rect class="cls-2" x="62.1" y="58.05" width="2.82" height="2.76"/>
    <rect class="cls-7" x="56.46" y="58.05" width="2.82" height="2.76"/>
    <rect class="cls-17" x="47.99" y="58.05" width="2.82" height="2.76"/>
    <rect class="cls-7" x="33.87" y="58.05" width="2.82" height="2.76"/>
    <rect class="cls-2" x="31.05" y="58.05" width="2.82" height="2.76"/>
    <rect class="cls-2" x="28.23" y="58.05" width="2.82" height="2.76"/>
    <rect class="cls-17" x="25.41" y="58.05" width="2.82" height="2.76"/>
    <rect class="cls-2" x="16.94" y="58.05" width="2.82" height="2.76"/>
    <rect class="cls-2" x="11.29" y="58.05" width="2.82" height="2.76"/>
    <rect class="cls-2" x="8.47" y="58.05" width="2.82" height="2.76"/>
    <rect class="cls-2" x="5.65" y="58.05" width="2.82" height="2.76"/>
    <rect class="cls-2" y="58.05" width="2.82" height="2.76"/>
    <rect class="cls-2" x="56.46" y="55.28" width="2.82" height="2.76"/>
    <rect class="cls-2" x="53.63" y="55.28" width="2.82" height="2.76"/>
    <rect class="cls-2" x="50.81" y="55.28" width="2.82" height="2.76"/>
    <rect class="cls-2" x="47.99" y="55.28" width="2.82" height="2.76"/>
    <rect class="cls-2" x="45.17" y="55.28" width="2.82" height="2.76"/>
    <rect class="cls-2" x="42.34" y="55.28" width="2.82" height="2.76"/>
    <rect class="cls-2" x="31.05" y="55.28" width="2.82" height="2.76"/>
    <rect class="cls-2" x="25.41" y="55.28" width="2.82" height="2.76"/>
    <rect class="cls-2" x="16.94" y="55.28" width="2.82" height="2.76"/>
    <rect class="cls-2" x="11.29" y="55.28" width="2.82" height="2.76"/>
    <rect class="cls-2" x="8.47" y="55.28" width="2.82" height="2.76"/>
    <rect class="cls-2" x="5.65" y="55.28" width="2.82" height="2.76"/>
    <rect class="cls-2" y="55.28" width="2.82" height="2.76"/>
    <rect class="cls-17" x="64.93" y="52.52" width="2.82" height="2.76"/>
    <rect class="cls-2" x="56.46" y="52.52" width="2.82" height="2.76"/>
    <rect class="cls-2" x="45.17" y="52.52" width="2.82" height="2.76"/>
    <rect class="cls-2" x="42.34" y="52.52" width="2.82" height="2.76"/>
    <rect class="cls-2" x="31.05" y="52.52" width="2.82" height="2.76"/>
    <rect class="cls-2" x="28.23" y="52.52" width="2.82" height="2.76"/>
    <rect class="cls-2" x="22.58" y="52.52" width="2.82" height="2.76"/>
    <rect class="cls-2" x="16.94" y="52.52" width="2.82" height="2.76"/>
    <rect class="cls-2" y="52.52" width="2.82" height="2.76"/>
    <rect class="cls-12" x="67.75" y="49.75" width="2.82" height="2.76"/>
    <rect class="cls-12" x="56.46" y="49.75" width="2.82" height="2.76"/>
    <rect class="cls-18" x="50.81" y="49.75" width="2.82" height="2.76"/>
    <rect class="cls-12" x="45.17" y="49.75" width="2.82" height="2.76"/>
    <rect class="cls-19" x="36.7" y="49.75" width="2.82" height="2.76"/>
    <rect class="cls-12" x="33.87" y="49.75" width="2.82" height="2.76"/>
    <rect class="cls-2" x="31.05" y="49.75" width="2.82" height="2.76"/>
    <rect class="cls-19" x="25.41" y="49.75" width="2.82" height="2.76"/>
    <rect class="cls-2" x="16.94" y="49.75" width="2.82" height="2.76"/>
    <rect class="cls-2" x="14.11" y="49.75" width="2.82" height="2.76"/>
    <rect class="cls-2" x="11.29" y="49.75" width="2.82" height="2.76"/>
    <rect class="cls-2" x="8.47" y="49.75" width="2.82" height="2.76"/>
    <rect class="cls-2" x="5.65" y="49.75" width="2.82" height="2.76"/>
    <rect class="cls-2" x="2.82" y="49.75" width="2.82" height="2.76"/>
    <rect class="cls-2" y="49.75" width="2.82" height="2.76"/>
    <rect class="cls-7" x="67.75" y="46.99" width="2.82" height="2.76"/>
    <rect class="cls-7" x="56.46" y="46.99" width="2.82" height="2.76"/>
    <rect class="cls-7" x="45.17" y="46.99" width="2.82" height="2.76"/>
    <rect class="cls-2" x="42.34" y="46.99" width="2.82" height="2.76"/>
    <rect class="cls-7" x="33.87" y="46.99" width="2.82" height="2.76"/>
    <rect class="cls-2" x="31.05" y="46.99" width="2.82" height="2.76"/>
    <rect class="cls-17" x="25.41" y="46.99" width="2.82" height="2.76"/>
    <rect class="cls-2" x="22.58" y="46.99" width="2.82" height="2.76"/>
    <rect class="cls-7" x="64.93" y="44.23" width="2.82" height="2.76"/>
    <rect class="cls-2" x="56.46" y="44.23" width="2.82" height="2.76"/>
    <rect class="cls-2" x="53.63" y="44.23" width="2.82" height="2.76"/>
    <rect class="cls-2" x="50.81" y="44.23" width="2.82" height="2.76"/>
    <rect class="cls-2" x="47.99" y="44.23" width="2.82" height="2.76"/>
    <rect class="cls-2" x="45.17" y="44.23" width="2.82" height="2.76"/>
    <rect class="cls-2" x="42.34" y="44.23" width="2.82" height="2.76"/>
    <rect class="cls-2" x="33.87" y="44.23" width="2.82" height="2.76"/>
    <rect class="cls-2" x="31.05" y="44.23" width="2.82" height="2.76"/>
    <rect class="cls-2" x="28.23" y="44.23" width="2.82" height="2.76"/>
    <rect class="cls-2" x="22.58" y="44.23" width="2.82" height="2.76"/>
    <rect class="cls-2" x="16.94" y="44.23" width="2.82" height="2.76"/>
    <rect class="cls-2" x="11.29" y="44.23" width="2.82" height="2.76"/>
    <rect class="cls-2" x="8.47" y="44.23" width="2.82" height="2.76"/>
    <rect class="cls-2" x="2.82" y="44.23" width="2.82" height="2.76"/>
    <rect class="cls-2" y="44.23" width="2.82" height="2.76"/>
    <rect class="cls-2" x="59.28" y="41.46" width="2.82" height="2.76"/>
    <rect class="cls-2" x="56.46" y="41.46" width="2.82" height="2.76"/>
    <rect class="cls-2" x="53.63" y="41.46" width="2.82" height="2.76"/>
    <rect class="cls-2" x="50.81" y="41.46" width="2.82" height="2.76"/>
    <rect class="cls-2" x="42.34" y="41.46" width="2.82" height="2.76"/>
    <rect class="cls-2" x="39.52" y="41.46" width="2.82" height="2.76"/>
    <rect class="cls-2" x="31.05" y="41.46" width="2.82" height="2.76"/>
    <rect class="cls-2" x="28.23" y="41.46" width="2.82" height="2.76"/>
    <rect class="cls-2" x="25.41" y="41.46" width="2.82" height="2.76"/>
    <rect class="cls-2" x="19.76" y="41.46" width="2.82" height="2.76"/>
    <rect class="cls-2" x="14.11" y="41.46" width="2.82" height="2.76"/>
    <rect class="cls-2" x="8.47" y="41.46" width="2.82" height="2.76"/>
    <rect class="cls-2" x="67.75" y="38.7" width="2.82" height="2.76"/>
    <rect class="cls-2" x="62.1" y="38.7" width="2.82" height="2.76"/>
    <rect class="cls-2" x="59.28" y="38.7" width="2.82" height="2.76"/>
    <rect class="cls-2" x="45.17" y="38.7" width="2.82" height="2.76"/>
    <rect class="cls-2" x="42.34" y="38.7" width="2.82" height="2.76"/>
    <rect class="cls-2" x="39.52" y="38.7" width="2.82" height="2.76"/>
    <rect class="cls-2" x="33.87" y="38.7" width="2.82" height="2.76"/>
    <rect class="cls-2" x="31.05" y="38.7" width="2.82" height="2.76"/>
    <rect class="cls-2" x="28.23" y="38.7" width="2.82" height="2.76"/>
    <rect class="cls-2" x="25.41" y="38.7" width="2.82" height="2.76"/>
    <rect class="cls-2" x="22.58" y="38.7" width="2.82" height="2.76"/>
    <rect class="cls-2" x="19.76" y="38.7" width="2.82" height="2.76"/>
    <rect class="cls-2" x="16.94" y="38.7" width="2.82" height="2.76"/>
    <rect class="cls-2" x="11.29" y="38.7" width="2.82" height="2.76"/>
    <rect class="cls-2" x="5.65" y="38.7" width="2.82" height="2.76"/>
    <rect class="cls-2" x="2.82" y="38.7" width="2.82" height="2.76"/>
    <rect class="cls-2" y="38.7" width="2.82" height="2.76"/>
    <rect class="cls-2" x="67.75" y="35.93" width="2.82" height="2.76"/>
    <rect class="cls-2" x="64.93" y="35.93" width="2.82" height="2.76"/>
    <rect class="cls-2" x="53.63" y="35.93" width="2.82" height="2.76"/>
    <rect class="cls-2" x="50.81" y="35.93" width="2.82" height="2.76"/>
    <rect class="cls-2" x="42.34" y="35.93" width="2.82" height="2.76"/>
    <rect class="cls-2" x="39.52" y="35.93" width="2.82" height="2.76"/>
    <rect class="cls-2" x="33.87" y="35.93" width="2.82" height="2.76"/>
    <rect class="cls-2" x="31.05" y="35.93" width="2.82" height="2.76"/>
    <rect class="cls-2" x="25.41" y="35.93" width="2.82" height="2.76"/>
    <rect class="cls-2" x="22.58" y="35.93" width="2.82" height="2.76"/>
    <rect class="cls-2" x="19.76" y="35.93" width="2.82" height="2.76"/>
    <rect class="cls-2" x="14.11" y="35.93" width="2.82" height="2.76"/>
    <rect class="cls-2" x="11.29" y="35.93" width="2.82" height="2.76"/>
    <rect class="cls-2" x="8.47" y="35.93" width="2.82" height="2.76"/>
    <rect class="cls-2" x="5.65" y="35.93" width="2.82" height="2.76"/>
    <rect class="cls-2" x="67.75" y="33.17" width="2.82" height="2.76"/>
    <rect class="cls-2" x="53.63" y="33.17" width="2.82" height="2.76"/>
    <rect class="cls-2" x="50.81" y="33.17" width="2.82" height="2.76"/>
    <rect class="cls-2" x="45.17" y="33.17" width="2.82" height="2.76"/>
    <rect class="cls-2" x="33.87" y="33.17" width="2.82" height="2.76"/>
    <rect class="cls-2" x="25.41" y="33.17" width="2.82" height="2.76"/>
    <rect class="cls-2" x="22.58" y="33.17" width="2.82" height="2.76"/>
    <rect class="cls-2" x="16.94" y="33.17" width="2.82" height="2.76"/>
    <rect class="cls-2" x="14.11" y="33.17" width="2.82" height="2.76"/>
    <rect class="cls-2" x="11.29" y="33.17" width="2.82" height="2.76"/>
    <rect class="cls-2" x="5.65" y="33.17" width="2.82" height="2.76"/>
    <rect class="cls-2" x="2.82" y="33.17" width="2.82" height="2.76"/>
    <rect class="cls-2" y="33.17" width="2.82" height="2.76"/>
    <rect class="cls-2" x="59.28" y="30.4" width="2.82" height="2.76"/>
    <rect class="cls-2" x="56.46" y="30.4" width="2.82" height="2.76"/>
    <rect class="cls-2" x="53.63" y="30.4" width="2.82" height="2.76"/>
    <rect class="cls-2" x="47.99" y="30.4" width="2.82" height="2.76"/>
    <rect class="cls-2" x="45.17" y="30.4" width="2.82" height="2.76"/>
    <rect class="cls-2" x="42.34" y="30.4" width="2.82" height="2.76"/>
    <rect class="cls-2" x="39.52" y="30.4" width="2.82" height="2.76"/>
    <rect class="cls-2" x="33.87" y="30.4" width="2.82" height="2.76"/>
    <rect class="cls-2" x="31.05" y="30.4" width="2.82" height="2.76"/>
    <rect class="cls-2" x="25.41" y="30.4" width="2.82" height="2.76"/>
    <rect class="cls-2" x="14.11" y="30.4" width="2.82" height="2.76"/>
    <rect class="cls-2" x="8.47" y="30.4" width="2.82" height="2.76"/>
    <rect class="cls-2" x="67.75" y="27.64" width="2.82" height="2.76"/>
    <rect class="cls-2" x="62.1" y="27.64" width="2.82" height="2.76"/>
    <rect class="cls-2" x="59.28" y="27.64" width="2.82" height="2.76"/>
    <rect class="cls-2" x="56.46" y="27.64" width="2.82" height="2.76"/>
    <rect class="cls-2" x="53.63" y="27.64" width="2.82" height="2.76"/>
    <rect class="cls-2" x="47.99" y="27.64" width="2.82" height="2.76"/>
    <rect class="cls-2" x="45.17" y="27.64" width="2.82" height="2.76"/>
    <rect class="cls-2" x="42.34" y="27.64" width="2.82" height="2.76"/>
    <rect class="cls-2" x="36.7" y="27.64" width="2.82" height="2.76"/>
    <rect class="cls-2" x="31.05" y="27.64" width="2.82" height="2.76"/>
    <rect class="cls-2" x="22.58" y="27.64" width="2.82" height="2.76"/>
    <rect class="cls-2" x="16.94" y="27.64" width="2.82" height="2.76"/>
    <rect class="cls-2" x="67.75" y="24.88" width="2.82" height="2.76"/>
    <rect class="cls-2" x="64.93" y="24.88" width="2.82" height="2.76"/>
    <rect class="cls-2" x="59.28" y="24.88" width="2.82" height="2.76"/>
    <rect class="cls-2" x="53.63" y="24.88" width="2.82" height="2.76"/>
    <rect class="cls-2" x="50.81" y="24.88" width="2.82" height="2.76"/>
    <rect class="cls-2" x="45.17" y="24.88" width="2.82" height="2.76"/>
    <rect class="cls-2" x="42.34" y="24.88" width="2.82" height="2.76"/>
    <rect class="cls-2" x="36.7" y="24.88" width="2.82" height="2.76"/>
    <rect class="cls-2" x="33.87" y="24.88" width="2.82" height="2.76"/>
    <rect class="cls-2" x="31.05" y="24.88" width="2.82" height="2.76"/>
    <rect class="cls-2" x="28.23" y="24.88" width="2.82" height="2.76"/>
    <rect class="cls-2" x="25.41" y="24.88" width="2.82" height="2.76"/>
    <rect class="cls-2" x="22.58" y="24.88" width="2.82" height="2.76"/>
    <rect class="cls-2" x="11.29" y="24.88" width="2.82" height="2.76"/>
    <rect class="cls-2" x="8.47" y="24.88" width="2.82" height="2.76"/>
    <rect class="cls-2" x="2.82" y="24.88" width="2.82" height="2.76"/>
    <rect class="cls-2" x="67.75" y="22.11" width="2.82" height="2.76"/>
    <rect class="cls-2" x="64.93" y="22.11" width="2.82" height="2.76"/>
    <rect class="cls-2" x="56.46" y="22.11" width="2.82" height="2.76"/>
    <rect class="cls-2" x="53.63" y="22.11" width="2.82" height="2.76"/>
    <rect class="cls-2" x="50.81" y="22.11" width="2.82" height="2.76"/>
    <rect class="cls-2" x="47.99" y="22.11" width="2.82" height="2.76"/>
    <rect class="cls-2" x="45.17" y="22.11" width="2.82" height="2.76"/>
    <rect class="cls-2" x="42.34" y="22.11" width="2.82" height="2.76"/>
    <rect class="cls-2" x="31.05" y="22.11" width="2.82" height="2.76"/>
    <rect class="cls-2" x="28.23" y="22.11" width="2.82" height="2.76"/>
    <rect class="cls-2" x="25.41" y="22.11" width="2.82" height="2.76"/>
    <rect class="cls-2" x="22.58" y="22.11" width="2.82" height="2.76"/>
    <rect class="cls-2" x="16.94" y="22.11" width="2.82" height="2.76"/>
    <rect class="cls-2" x="14.11" y="22.11" width="2.82" height="2.76"/>
    <rect class="cls-2" x="5.65" y="22.11" width="2.82" height="2.76"/>
    <rect class="cls-2" x="2.82" y="22.11" width="2.82" height="2.76"/>
    <rect class="cls-2" y="22.11" width="2.82" height="2.76"/>
    <rect class="cls-2" x="45.17" y="19.35" width="2.82" height="2.76"/>
    <rect class="cls-2" x="39.52" y="19.35" width="2.82" height="2.76"/>
    <rect class="cls-2" x="31.05" y="19.35" width="2.82" height="2.76"/>
    <rect class="cls-2" x="28.23" y="19.35" width="2.82" height="2.76"/>
    <rect class="cls-2" x="22.58" y="19.35" width="2.82" height="2.76"/>
    <rect class="cls-6" x="67.75" y="16.58" width="2.82" height="2.76"/>
    <rect class="cls-2" x="64.93" y="16.58" width="2.82" height="2.76"/>
    <rect class="cls-2" x="62.1" y="16.58" width="2.82" height="2.76"/>
    <rect class="cls-2" x="59.28" y="16.58" width="2.82" height="2.76"/>
    <rect class="cls-2" x="56.46" y="16.58" width="2.82" height="2.76"/>
    <rect class="cls-2" x="53.63" y="16.58" width="2.82" height="2.76"/>
    <rect class="cls-2" x="45.17" y="16.58" width="2.82" height="2.76"/>
    <rect class="cls-2" x="39.52" y="16.58" width="2.82" height="2.76"/>
    <rect class="cls-2" x="33.87" y="16.58" width="2.82" height="2.76"/>
    <rect class="cls-2" x="28.23" y="16.58" width="2.82" height="2.76"/>
    <rect class="cls-2" x="22.58" y="16.58" width="2.82" height="2.76"/>
    <rect class="cls-14" x="16.94" y="16.58" width="2.82" height="2.76"/>
    <rect class="cls-2" x="14.11" y="16.58" width="2.82" height="2.76"/>
    <rect class="cls-2" x="11.29" y="16.58" width="2.82" height="2.76"/>
    <rect class="cls-2" x="8.47" y="16.58" width="2.82" height="2.76"/>
    <rect class="cls-2" x="5.65" y="16.58" width="2.82" height="2.76"/>
    <rect class="cls-2" x="2.82" y="16.58" width="2.82" height="2.76"/>
    <rect class="cls-4" y="16.58" width="2.82" height="2.76"/>
    <rect class="cls-2" x="67.75" y="13.82" width="2.82" height="2.76"/>
    <rect class="cls-2" x="50.81" y="13.82" width="2.82" height="2.76"/>
    <rect class="cls-2" x="45.17" y="13.82" width="2.82" height="2.76"/>
    <rect class="cls-2" x="22.58" y="13.82" width="2.82" height="2.76"/>
    <rect class="cls-2" x="16.94" y="13.82" width="2.82" height="2.76"/>
    <rect class="cls-2" y="13.82" width="2.82" height="2.76"/>
    <rect class="cls-2" x="67.75" y="11.06" width="2.82" height="2.76"/>
    <rect class="cls-2" x="62.1" y="11.06" width="2.82" height="2.76"/>
    <rect class="cls-2" x="59.28" y="11.06" width="2.82" height="2.76"/>
    <rect class="cls-2" x="56.46" y="11.06" width="2.82" height="2.76"/>
    <rect class="cls-2" x="50.81" y="11.06" width="2.82" height="2.76"/>
    <rect class="cls-2" x="39.52" y="11.06" width="2.82" height="2.76"/>
    <rect class="cls-2" x="36.7" y="11.06" width="2.82" height="2.76"/>
    <rect class="cls-2" x="28.23" y="11.06" width="2.82" height="2.76"/>
    <rect class="cls-2" x="25.41" y="11.06" width="2.82" height="2.76"/>
    <rect class="cls-2" x="22.58" y="11.06" width="2.82" height="2.76"/>
    <rect class="cls-2" x="16.94" y="11.06" width="2.82" height="2.76"/>
    <rect class="cls-2" x="11.29" y="11.06" width="2.82" height="2.76"/>
    <rect class="cls-2" x="8.47" y="11.06" width="2.82" height="2.76"/>
    <rect class="cls-2" x="5.65" y="11.06" width="2.82" height="2.76"/>
    <rect class="cls-2" y="11.06" width="2.82" height="2.76"/>
    <rect class="cls-2" x="67.75" y="8.29" width="2.82" height="2.76"/>
    <rect class="cls-2" x="62.1" y="8.29" width="2.82" height="2.76"/>
    <rect class="cls-2" x="59.28" y="8.29" width="2.82" height="2.76"/>
    <rect class="cls-2" x="56.46" y="8.29" width="2.82" height="2.76"/>
    <rect class="cls-2" x="50.81" y="8.29" width="2.82" height="2.76"/>
    <rect class="cls-2" x="39.52" y="8.29" width="2.82" height="2.76"/>
    <rect class="cls-2" x="36.7" y="8.29" width="2.82" height="2.76"/>
    <rect class="cls-2" x="31.05" y="8.29" width="2.82" height="2.76"/>
    <rect class="cls-2" x="28.23" y="8.29" width="2.82" height="2.76"/>
    <rect class="cls-2" x="16.94" y="8.29" width="2.82" height="2.76"/>
    <rect class="cls-2" x="11.29" y="8.29" width="2.82" height="2.76"/>
    <rect class="cls-2" x="8.47" y="8.29" width="2.82" height="2.76"/>
    <rect class="cls-2" x="5.65" y="8.29" width="2.82" height="2.76"/>
    <rect class="cls-2" y="8.29" width="2.82" height="2.76"/>
    <rect class="cls-2" x="67.75" y="5.53" width="2.82" height="2.76"/>
    <rect class="cls-2" x="62.1" y="5.53" width="2.82" height="2.76"/>
    <rect class="cls-2" x="59.28" y="5.53" width="2.82" height="2.76"/>
    <rect class="cls-2" x="56.46" y="5.53" width="2.82" height="2.76"/>
    <rect class="cls-2" x="50.81" y="5.53" width="2.82" height="2.76"/>
    <rect class="cls-2" x="42.34" y="5.53" width="2.82" height="2.76"/>
    <rect class="cls-2" x="36.7" y="5.53" width="2.82" height="2.76"/>
    <rect class="cls-2" x="28.23" y="5.53" width="2.82" height="2.76"/>
    <rect class="cls-2" x="16.94" y="5.53" width="2.82" height="2.76"/>
    <rect class="cls-2" x="11.29" y="5.53" width="2.82" height="2.76"/>
    <rect class="cls-2" x="8.47" y="5.53" width="2.82" height="2.76"/>
    <rect class="cls-2" x="5.65" y="5.53" width="2.82" height="2.76"/>
    <rect class="cls-2" y="5.53" width="2.82" height="2.76"/>
    <rect class="cls-2" x="67.75" y="2.76" width="2.82" height="2.76"/>
    <rect class="cls-2" x="50.81" y="2.76" width="2.82" height="2.76"/>
    <rect class="cls-2" x="45.17" y="2.76" width="2.82" height="2.76"/>
    <rect class="cls-2" x="39.52" y="2.76" width="2.82" height="2.76"/>
    <rect class="cls-2" x="36.7" y="2.76" width="2.82" height="2.76"/>
    <rect class="cls-2" x="28.23" y="2.76" width="2.82" height="2.76"/>
    <rect class="cls-2" x="25.41" y="2.76" width="2.82" height="2.76"/>
    <rect class="cls-2" x="22.58" y="2.76" width="2.82" height="2.76"/>
    <rect class="cls-2" x="16.94" y="2.76" width="2.82" height="2.76"/>
    <rect class="cls-2" y="2.76" width="2.82" height="2.76"/>
    <rect class="cls-17" x="67.75" width="2.82" height="2.76"/>
    <rect class="cls-2" x="64.93" width="2.82" height="2.76"/>
    <rect class="cls-2" x="62.1" width="2.82" height="2.76"/>
    <rect class="cls-2" x="59.28" width="2.82" height="2.76"/>
    <rect class="cls-2" x="56.46" width="2.82" height="2.76"/>
    <rect class="cls-2" x="53.63" width="2.82" height="2.76"/>
    <rect class="cls-2" x="39.52" width="2.82" height="2.76"/>
    <rect class="cls-2" x="33.87" width="2.82" height="2.76"/>
    <rect class="cls-2" x="31.05" width="2.82" height="2.76"/>
    <rect class="cls-2" x="28.23" width="2.82" height="2.76"/>
    <rect class="cls-2" x="22.58" width="2.82" height="2.76"/>
    <rect class="cls-1" x="16.94" width="2.82" height="2.76"/>
    <rect class="cls-2" x="14.11" width="2.82" height="2.76"/>
    <rect class="cls-2" x="11.29" width="2.82" height="2.76"/>
    <rect class="cls-2" x="8.47" width="2.82" height="2.76"/>
    <rect class="cls-2" x="5.65" width="2.82" height="2.76"/>
    <rect class="cls-2" x="2.82" width="2.82" height="2.76"/>
    <rect class="cls-8" width="2.82" height="2.76"/>
    <rect class="cls-11" x="45.17" width="2.82" height="2.76"/>
    <rect class="cls-11" x="50.81" width="2.82" height="2.76"/>
    <rect class="cls-11" x="50.81" y="16.58" width="2.82" height="2.76"/>
    <rect class="cls-11" x="0" y="66.38" width="2.82" height="2.76"/>
  </g>
  <g>
    <rect class="cls-11" x="67.75" y="66.34" width="2.82" height="2.76"/>
    <rect class="cls-11" x="59.28" y="66.34" width="2.82" height="2.76"/>
    <rect class="cls-11" x="45.17" y="66.34" width="2.82" height="2.76"/>
    <rect class="cls-11" x="33.87" y="66.34" width="2.82" height="2.76"/>
    <rect class="cls-11" x="31.05" y="66.34" width="2.82" height="2.76"/>
    <rect class="cls-11" x="28.23" y="66.34" width="2.82" height="2.76"/>
    <rect class="cls-11" x="25.41" y="66.34" width="2.82" height="2.76"/>
    <rect class="cls-11" x="22.58" y="66.34" width="2.82" height="2.76"/>
    <rect class="cls-11" x="16.94" y="66.34" width="2.82" height="2.76"/>
    <rect class="cls-11" x="14.11" y="66.34" width="2.82" height="2.76"/>
    <rect class="cls-11" x="11.29" y="66.34" width="2.82" height="2.76"/>
    <rect class="cls-11" x="8.47" y="66.34" width="2.82" height="2.76"/>
    <rect class="cls-11" x="5.65" y="66.34" width="2.82" height="2.76"/>
    <rect class="cls-11" x="2.82" y="66.34" width="2.82" height="2.76"/>
    <rect class="cls-11" x="56.46" y="63.57" width="2.82" height="2.76"/>
    <rect class="cls-11" x="53.63" y="63.57" width="2.82" height="2.76"/>
    <rect class="cls-11" x="50.81" y="63.57" width="2.82" height="2.76"/>
    <rect class="cls-11" x="45.17" y="63.57" width="2.82" height="2.76"/>
    <rect class="cls-11" x="42.34" y="63.57" width="2.82" height="2.76"/>
    <rect class="cls-11" x="39.52" y="63.57" width="2.82" height="2.76"/>
    <rect class="cls-11" x="25.41" y="63.57" width="2.82" height="2.76"/>
    <rect class="cls-11" x="22.58" y="63.57" width="2.82" height="2.76"/>
    <rect class="cls-11" x="16.94" y="63.57" width="2.82" height="2.76"/>
    <rect class="cls-11" y="63.57" width="2.82" height="2.76"/>
    <rect class="cls-11" x="67.75" y="60.81" width="2.82" height="2.76"/>
    <rect class="cls-11" x="64.93" y="60.81" width="2.82" height="2.76"/>
    <rect class="cls-11" x="59.28" y="60.81" width="2.82" height="2.76"/>
    <rect class="cls-11" x="56.46" y="60.81" width="2.82" height="2.76"/>
    <rect class="cls-11" x="53.63" y="60.81" width="2.82" height="2.76"/>
    <rect class="cls-11" x="47.99" y="60.81" width="2.82" height="2.76"/>
    <rect class="cls-11" x="45.17" y="60.81" width="2.82" height="2.76"/>
    <rect class="cls-11" x="36.7" y="60.81" width="2.82" height="2.76"/>
    <rect class="cls-11" x="31.05" y="60.81" width="2.82" height="2.76"/>
    <rect class="cls-11" x="28.23" y="60.81" width="2.82" height="2.76"/>
    <rect class="cls-11" x="25.41" y="60.81" width="2.82" height="2.76"/>
    <rect class="cls-11" x="22.58" y="60.81" width="2.82" height="2.76"/>
    <rect class="cls-11" x="16.94" y="60.81" width="2.82" height="2.76"/>
    <rect class="cls-11" x="11.29" y="60.81" width="2.82" height="2.76"/>
    <rect class="cls-11" x="8.47" y="60.81" width="2.82" height="2.76"/>
    <rect class="cls-11" x="5.65" y="60.81" width="2.82" height="2.76"/>
    <rect class="cls-11" y="60.81" width="2.82" height="2.76"/>
    <rect class="cls-11" x="64.93" y="58.05" width="2.82" height="2.76"/>
    <rect class="cls-11" x="62.1" y="58.05" width="2.82" height="2.76"/>
    <rect class="cls-11" x="56.46" y="58.05" width="2.82" height="2.76"/>
    <rect class="cls-11" x="47.99" y="58.05" width="2.82" height="2.76"/>
    <rect class="cls-11" x="33.87" y="58.05" width="2.82" height="2.76"/>
    <rect class="cls-11" x="31.05" y="58.05" width="2.82" height="2.76"/>
    <rect class="cls-11" x="28.23" y="58.05" width="2.82" height="2.76"/>
    <rect class="cls-11" x="25.41" y="58.05" width="2.82" height="2.76"/>
    <rect class="cls-11" x="16.94" y="58.05" width="2.82" height="2.76"/>
    <rect class="cls-11" x="11.29" y="58.05" width="2.82" height="2.76"/>
    <rect class="cls-11" x="8.47" y="58.05" width="2.82" height="2.76"/>
    <rect class="cls-11" x="5.65" y="58.05" width="2.82" height="2.76"/>
    <rect class="cls-11" y="58.05" width="2.82" height="2.76"/>
    <rect class="cls-11" x="56.46" y="55.28" width="2.82" height="2.76"/>
    <rect class="cls-11" x="53.63" y="55.28" width="2.82" height="2.76"/>
    <rect class="cls-11" x="50.81" y="55.28" width="2.82" height="2.76"/>
    <rect class="cls-11" x="47.99" y="55.28" width="2.82" height="2.76"/>
    <rect class="cls-11" x="45.17" y="55.28" width="2.82" height="2.76"/>
    <rect class="cls-11" x="42.34" y="55.28" width="2.82" height="2.76"/>
    <rect class="cls-11" x="31.05" y="55.28" width="2.82" height="2.76"/>
    <rect class="cls-11" x="25.41" y="55.28" width="2.82" height="2.76"/>
    <rect class="cls-11" x="16.94" y="55.28" width="2.82" height="2.76"/>
    <rect class="cls-11" x="11.29" y="55.28" width="2.82" height="2.76"/>
    <rect class="cls-11" x="8.47" y="55.28" width="2.82" height="2.76"/>
    <rect class="cls-11" x="5.65" y="55.28" width="2.82" height="2.76"/>
    <rect class="cls-11" y="55.28" width="2.82" height="2.76"/>
    <rect class="cls-11" x="64.93" y="52.52" width="2.82" height="2.76"/>
    <rect class="cls-11" x="56.46" y="52.52" width="2.82" height="2.76"/>
    <rect class="cls-11" x="45.17" y="52.52" width="2.82" height="2.76"/>
    <rect class="cls-11" x="42.34" y="52.52" width="2.82" height="2.76"/>
    <rect class="cls-11" x="31.05" y="52.52" width="2.82" height="2.76"/>
    <rect class="cls-11" x="28.23" y="52.52" width="2.82" height="2.76"/>
    <rect class="cls-11" x="22.58" y="52.52" width="2.82" height="2.76"/>
    <rect class="cls-11" x="16.94" y="52.52" width="2.82" height="2.76"/>
    <rect class="cls-11" y="52.52" width="2.82" height="2.76"/>
    <rect class="cls-11" x="67.75" y="49.75" width="2.82" height="2.76"/>
    <rect class="cls-11" x="56.46" y="49.75" width="2.82" height="2.76"/>
    <rect class="cls-11" x="50.81" y="49.75" width="2.82" height="2.76"/>
    <rect class="cls-11" x="45.17" y="49.75" width="2.82" height="2.76"/>
    <rect class="cls-11" x="36.7" y="49.75" width="2.82" height="2.76"/>
    <rect class="cls-11" x="33.87" y="49.75" width="2.82" height="2.76"/>
    <rect class="cls-11" x="31.05" y="49.75" width="2.82" height="2.76"/>
    <rect class="cls-11" x="25.41" y="49.75" width="2.82" height="2.76"/>
    <rect class="cls-11" x="16.94" y="49.75" width="2.82" height="2.76"/>
    <rect class="cls-11" x="14.11" y="49.75" width="2.82" height="2.76"/>
    <rect class="cls-11" x="11.29" y="49.75" width="2.82" height="2.76"/>
    <rect class="cls-11" x="8.47" y="49.75" width="2.82" height="2.76"/>
    <rect class="cls-11" x="5.65" y="49.75" width="2.82" height="2.76"/>
    <rect class="cls-11" x="2.82" y="49.75" width="2.82" height="2.76"/>
    <rect class="cls-11" y="49.75" width="2.82" height="2.76"/>
    <rect class="cls-11" x="67.75" y="46.99" width="2.82" height="2.76"/>
    <rect class="cls-11" x="56.46" y="46.99" width="2.82" height="2.76"/>
    <rect class="cls-11" x="45.17" y="46.99" width="2.82" height="2.76"/>
    <rect class="cls-11" x="42.34" y="46.99" width="2.82" height="2.76"/>
    <rect class="cls-11" x="33.87" y="46.99" width="2.82" height="2.76"/>
    <rect class="cls-11" x="31.05" y="46.99" width="2.82" height="2.76"/>
    <rect class="cls-11" x="25.41" y="46.99" width="2.82" height="2.76"/>
    <rect class="cls-11" x="22.58" y="46.99" width="2.82" height="2.76"/>
    <rect class="cls-11" x="64.93" y="44.23" width="2.82" height="2.76"/>
    <rect class="cls-11" x="56.46" y="44.23" width="2.82" height="2.76"/>
    <rect class="cls-11" x="53.63" y="44.23" width="2.82" height="2.76"/>
    <rect class="cls-11" x="50.81" y="44.23" width="2.82" height="2.76"/>
    <rect class="cls-11" x="47.99" y="44.23" width="2.82" height="2.76"/>
    <rect class="cls-11" x="45.17" y="44.23" width="2.82" height="2.76"/>
    <rect class="cls-11" x="42.34" y="44.23" width="2.82" height="2.76"/>
    <rect class="cls-11" x="33.87" y="44.23" width="2.82" height="2.76"/>
    <rect class="cls-11" x="31.05" y="44.23" width="2.82" height="2.76"/>
    <rect class="cls-11" x="28.23" y="44.23" width="2.82" height="2.76"/>
    <rect class="cls-11" x="22.58" y="44.23" width="2.82" height="2.76"/>
    <rect class="cls-11" x="16.94" y="44.23" width="2.82" height="2.76"/>
    <rect class="cls-11" x="11.29" y="44.23" width="2.82" height="2.76"/>
    <rect class="cls-11" x="8.47" y="44.23" width="2.82" height="2.76"/>
    <rect class="cls-11" x="2.82" y="44.23" width="2.82" height="2.76"/>
    <rect class="cls-11" y="44.23" width="2.82" height="2.76"/>
    <rect class="cls-11" x="59.28" y="41.46" width="2.82" height="2.76"/>
    <rect class="cls-11" x="56.46" y="41.46" width="2.82" height="2.76"/>
    <rect class="cls-11" x="53.63" y="41.46" width="2.82" height="2.76"/>
    <rect class="cls-11" x="50.81" y="41.46" width="2.82" height="2.76"/>
    <rect class="cls-11" x="42.34" y="41.46" width="2.82" height="2.76"/>
    <rect class="cls-11" x="39.52" y="41.46" width="2.82" height="2.76"/>
    <rect class="cls-11" x="31.05" y="41.46" width="2.82" height="2.76"/>
    <rect class="cls-11" x="28.23" y="41.46" width="2.82" height="2.76"/>
    <rect class="cls-11" x="25.41" y="41.46" width="2.82" height="2.76"/>
    <rect class="cls-11" x="19.76" y="41.46" width="2.82" height="2.76"/>
    <rect class="cls-11" x="14.11" y="41.46" width="2.82" height="2.76"/>
    <rect class="cls-11" x="8.47" y="41.46" width="2.82" height="2.76"/>
    <rect class="cls-11" x="67.75" y="38.7" width="2.82" height="2.76"/>
    <rect class="cls-11" x="62.1" y="38.7" width="2.82" height="2.76"/>
    <rect class="cls-11" x="59.28" y="38.7" width="2.82" height="2.76"/>
    <rect class="cls-11" x="45.17" y="38.7" width="2.82" height="2.76"/>
    <rect class="cls-11" x="42.34" y="38.7" width="2.82" height="2.76"/>
    <rect class="cls-11" x="39.52" y="38.7" width="2.82" height="2.76"/>
    <rect class="cls-11" x="33.87" y="38.7" width="2.82" height="2.76"/>
    <rect class="cls-11" x="31.05" y="38.7" width="2.82" height="2.76"/>
    <rect class="cls-11" x="28.23" y="38.7" width="2.82" height="2.76"/>
    <rect class="cls-11" x="25.41" y="38.7" width="2.82" height="2.76"/>
    <rect class="cls-11" x="22.58" y="38.7" width="2.82" height="2.76"/>
    <rect class="cls-11" x="19.76" y="38.7" width="2.82" height="2.76"/>
    <rect class="cls-11" x="16.94" y="38.7" width="2.82" height="2.76"/>
    <rect class="cls-11" x="11.29" y="38.7" width="2.82" height="2.76"/>
    <rect class="cls-11" x="5.65" y="38.7" width="2.82" height="2.76"/>
    <rect class="cls-11" x="2.82" y="38.7" width="2.82" height="2.76"/>
    <rect class="cls-11" y="38.7" width="2.82" height="2.76"/>
    <rect class="cls-11" x="67.75" y="35.93" width="2.82" height="2.76"/>
    <rect class="cls-11" x="64.93" y="35.93" width="2.82" height="2.76"/>
    <rect class="cls-11" x="53.63" y="35.93" width="2.82" height="2.76"/>
    <rect class="cls-11" x="50.81" y="35.93" width="2.82" height="2.76"/>
    <rect class="cls-11" x="42.34" y="35.93" width="2.82" height="2.76"/>
    <rect class="cls-11" x="39.52" y="35.93" width="2.82" height="2.76"/>
    <rect class="cls-11" x="33.87" y="35.93" width="2.82" height="2.76"/>
    <rect class="cls-11" x="31.05" y="35.93" width="2.82" height="2.76"/>
    <rect class="cls-11" x="25.41" y="35.93" width="2.82" height="2.76"/>
    <rect class="cls-11" x="22.58" y="35.93" width="2.82" height="2.76"/>
    <rect class="cls-11" x="19.76" y="35.93" width="2.82" height="2.76"/>
    <rect class="cls-11" x="14.11" y="35.93" width="2.82" height="2.76"/>
    <rect class="cls-11" x="11.29" y="35.93" width="2.82" height="2.76"/>
    <rect class="cls-11" x="8.47" y="35.93" width="2.82" height="2.76"/>
    <rect class="cls-11" x="5.65" y="35.93" width="2.82" height="2.76"/>
    <rect class="cls-11" x="67.75" y="33.17" width="2.82" height="2.76"/>
    <rect class="cls-11" x="53.63" y="33.17" width="2.82" height="2.76"/>
    <rect class="cls-11" x="50.81" y="33.17" width="2.82" height="2.76"/>
    <rect class="cls-11" x="45.17" y="33.17" width="2.82" height="2.76"/>
    <rect class="cls-11" x="33.87" y="33.17" width="2.82" height="2.76"/>
    <rect class="cls-11" x="25.41" y="33.17" width="2.82" height="2.76"/>
    <rect class="cls-11" x="22.58" y="33.17" width="2.82" height="2.76"/>
    <rect class="cls-11" x="16.94" y="33.17" width="2.82" height="2.76"/>
    <rect class="cls-11" x="14.11" y="33.17" width="2.82" height="2.76"/>
    <rect class="cls-11" x="11.29" y="33.17" width="2.82" height="2.76"/>
    <rect class="cls-11" x="5.65" y="33.17" width="2.82" height="2.76"/>
    <rect class="cls-11" x="2.82" y="33.17" width="2.82" height="2.76"/>
    <rect class="cls-11" y="33.17" width="2.82" height="2.76"/>
    <rect class="cls-11" x="59.28" y="30.4" width="2.82" height="2.76"/>
    <rect class="cls-11" x="56.46" y="30.4" width="2.82" height="2.76"/>
    <rect class="cls-11" x="53.63" y="30.4" width="2.82" height="2.76"/>
    <rect class="cls-11" x="47.99" y="30.4" width="2.82" height="2.76"/>
    <rect class="cls-11" x="45.17" y="30.4" width="2.82" height="2.76"/>
    <rect class="cls-11" x="42.34" y="30.4" width="2.82" height="2.76"/>
    <rect class="cls-11" x="39.52" y="30.4" width="2.82" height="2.76"/>
    <rect class="cls-11" x="33.87" y="30.4" width="2.82" height="2.76"/>
    <rect class="cls-11" x="31.05" y="30.4" width="2.82" height="2.76"/>
    <rect class="cls-11" x="25.41" y="30.4" width="2.82" height="2.76"/>
    <rect class="cls-11" x="14.11" y="30.4" width="2.82" height="2.76"/>
    <rect class="cls-11" x="8.47" y="30.4" width="2.82" height="2.76"/>
    <rect class="cls-11" x="67.75" y="27.64" width="2.82" height="2.76"/>
    <rect class="cls-11" x="62.1" y="27.64" width="2.82" height="2.76"/>
    <rect class="cls-11" x="59.28" y="27.64" width="2.82" height="2.76"/>
    <rect class="cls-11" x="56.46" y="27.64" width="2.82" height="2.76"/>
    <rect class="cls-11" x="53.63" y="27.64" width="2.82" height="2.76"/>
    <rect class="cls-11" x="47.99" y="27.64" width="2.82" height="2.76"/>
    <rect class="cls-11" x="45.17" y="27.64" width="2.82" height="2.76"/>
    <rect class="cls-11" x="42.34" y="27.64" width="2.82" height="2.76"/>
    <rect class="cls-11" x="36.7" y="27.64" width="2.82" height="2.76"/>
    <rect class="cls-11" x="31.05" y="27.64" width="2.82" height="2.76"/>
    <rect class="cls-11" x="22.58" y="27.64" width="2.82" height="2.76"/>
    <rect class="cls-11" x="16.94" y="27.64" width="2.82" height="2.76"/>
    <rect class="cls-11" x="67.75" y="24.88" width="2.82" height="2.76"/>
    <rect class="cls-11" x="64.93" y="24.88" width="2.82" height="2.76"/>
    <rect class="cls-11" x="59.28" y="24.88" width="2.82" height="2.76"/>
    <rect class="cls-11" x="53.63" y="24.88" width="2.82" height="2.76"/>
    <rect class="cls-11" x="50.81" y="24.88" width="2.82" height="2.76"/>
    <rect class="cls-11" x="45.17" y="24.88" width="2.82" height="2.76"/>
    <rect class="cls-11" x="42.34" y="24.88" width="2.82" height="2.76"/>
    <rect class="cls-11" x="36.7" y="24.88" width="2.82" height="2.76"/>
    <rect class="cls-11" x="33.87" y="24.88" width="2.82" height="2.76"/>
    <rect class="cls-11" x="31.05" y="24.88" width="2.82" height="2.76"/>
    <rect class="cls-11" x="28.23" y="24.88" width="2.82" height="2.76"/>
    <rect class="cls-11" x="25.41" y="24.88" width="2.82" height="2.76"/>
    <rect class="cls-11" x="22.58" y="24.88" width="2.82" height="2.76"/>
    <rect class="cls-11" x="11.29" y="24.88" width="2.82" height="2.76"/>
    <rect class="cls-11" x="8.47" y="24.88" width="2.82" height="2.76"/>
    <rect class="cls-11" x="2.82" y="24.88" width="2.82" height="2.76"/>
    <rect class="cls-11" x="67.75" y="22.11" width="2.82" height="2.76"/>
    <rect class="cls-11" x="64.93" y="22.11" width="2.82" height="2.76"/>
    <rect class="cls-11" x="56.46" y="22.11" width="2.82" height="2.76"/>
    <rect class="cls-11" x="53.63" y="22.11" width="2.82" height="2.76"/>
    <rect class="cls-11" x="50.81" y="22.11" width="2.82" height="2.76"/>
    <rect class="cls-11" x="47.99" y="22.11" width="2.82" height="2.76"/>
    <rect class="cls-11" x="45.17" y="22.11" width="2.82" height="2.76"/>
    <rect class="cls-11" x="42.34" y="22.11" width="2.82" height="2.76"/>
    <rect class="cls-11" x="31.05" y="22.11" width="2.82" height="2.76"/>
    <rect class="cls-11" x="28.23" y="22.11" width="2.82" height="2.76"/>
    <rect class="cls-11" x="25.41" y="22.11" width="2.82" height="2.76"/>
    <rect class="cls-11" x="22.58" y="22.11" width="2.82" height="2.76"/>
    <rect class="cls-11" x="16.94" y="22.11" width="2.82" height="2.76"/>
    <rect class="cls-11" x="14.11" y="22.11" width="2.82" height="2.76"/>
    <rect class="cls-11" x="5.65" y="22.11" width="2.82" height="2.76"/>
    <rect class="cls-11" x="2.82" y="22.11" width="2.82" height="2.76"/>
    <rect class="cls-11" y="22.11" width="2.82" height="2.76"/>
    <rect class="cls-11" x="45.17" y="19.35" width="2.82" height="2.76"/>
    <rect class="cls-11" x="39.52" y="19.35" width="2.82" height="2.76"/>
    <rect class="cls-11" x="31.05" y="19.35" width="2.82" height="2.76"/>
    <rect class="cls-11" x="28.23" y="19.35" width="2.82" height="2.76"/>
    <rect class="cls-11" x="22.58" y="19.35" width="2.82" height="2.76"/>
    <rect class="cls-11" x="67.75" y="16.58" width="2.82" height="2.76"/>
    <rect class="cls-11" x="64.93" y="16.58" width="2.82" height="2.76"/>
    <rect class="cls-11" x="62.1" y="16.58" width="2.82" height="2.76"/>
    <rect class="cls-11" x="59.28" y="16.58" width="2.82" height="2.76"/>
    <rect class="cls-11" x="56.46" y="16.58" width="2.82" height="2.76"/>
    <rect class="cls-11" x="53.63" y="16.58" width="2.82" height="2.76"/>
    <rect class="cls-11" x="45.17" y="16.58" width="2.82" height="2.76"/>
    <rect class="cls-11" x="39.52" y="16.58" width="2.82" height="2.76"/>
    <rect class="cls-11" x="33.87" y="16.58" width="2.82" height="2.76"/>
    <rect class="cls-11" x="28.23" y="16.58" width="2.82" height="2.76"/>
    <rect class="cls-11" x="22.58" y="16.58" width="2.82" height="2.76"/>
    <rect class="cls-11" x="16.94" y="16.58" width="2.82" height="2.76"/>
    <rect class="cls-11" x="14.11" y="16.58" width="2.82" height="2.76"/>
    <rect class="cls-11" x="11.29" y="16.58" width="2.82" height="2.76"/>
    <rect class="cls-11" x="8.47" y="16.58" width="2.82" height="2.76"/>
    <rect class="cls-11" x="5.65" y="16.58" width="2.82" height="2.76"/>
    <rect class="cls-11" x="2.82" y="16.58" width="2.82" height="2.76"/>
    <rect class="cls-11" y="16.58" width="2.82" height="2.76"/>
    <rect class="cls-11" x="67.75" y="13.82" width="2.82" height="2.76"/>
    <rect class="cls-11" x="50.81" y="13.82" width="2.82" height="2.76"/>
    <rect class="cls-11" x="45.17" y="13.82" width="2.82" height="2.76"/>
    <rect class="cls-11" x="22.58" y="13.82" width="2.82" height="2.76"/>
    <rect class="cls-11" x="16.94" y="13.82" width="2.82" height="2.76"/>
    <rect class="cls-11" y="13.82" width="2.82" height="2.76"/>
    <rect class="cls-11" x="67.75" y="11.06" width="2.82" height="2.76"/>
    <rect class="cls-11" x="62.1" y="11.06" width="2.82" height="2.76"/>
    <rect class="cls-11" x="59.28" y="11.06" width="2.82" height="2.76"/>
    <rect class="cls-11" x="56.46" y="11.06" width="2.82" height="2.76"/>
    <rect class="cls-11" x="50.81" y="11.06" width="2.82" height="2.76"/>
    <rect class="cls-11" x="39.52" y="11.06" width="2.82" height="2.76"/>
    <rect class="cls-11" x="36.7" y="11.06" width="2.82" height="2.76"/>
    <rect class="cls-11" x="28.23" y="11.06" width="2.82" height="2.76"/>
    <rect class="cls-11" x="25.41" y="11.06" width="2.82" height="2.76"/>
    <rect class="cls-11" x="22.58" y="11.06" width="2.82" height="2.76"/>
    <rect class="cls-11" x="16.94" y="11.06" width="2.82" height="2.76"/>
    <rect class="cls-11" x="11.29" y="11.06" width="2.82" height="2.76"/>
    <rect class="cls-11" x="8.47" y="11.06" width="2.82" height="2.76"/>
    <rect class="cls-11" x="5.65" y="11.06" width="2.82" height="2.76"/>
    <rect class="cls-11" y="11.06" width="2.82" height="2.76"/>
    <rect class="cls-11" x="67.75" y="8.29" width="2.82" height="2.76"/>
    <rect class="cls-11" x="62.1" y="8.29" width="2.82" height="2.76"/>
    <rect class="cls-11" x="59.28" y="8.29" width="2.82" height="2.76"/>
    <rect class="cls-11" x="56.46" y="8.29" width="2.82" height="2.76"/>
    <rect class="cls-11" x="50.81" y="8.29" width="2.82" height="2.76"/>
    <rect class="cls-11" x="39.52" y="8.29" width="2.82" height="2.76"/>
    <rect class="cls-11" x="36.7" y="8.29" width="2.82" height="2.76"/>
    <rect class="cls-11" x="31.05" y="8.29" width="2.82" height="2.76"/>
    <rect class="cls-11" x="28.23" y="8.29" width="2.82" height="2.76"/>
    <rect class="cls-11" x="16.94" y="8.29" width="2.82" height="2.76"/>
    <rect class="cls-11" x="11.29" y="8.29" width="2.82" height="2.76"/>
    <rect class="cls-11" x="8.47" y="8.29" width="2.82" height="2.76"/>
    <rect class="cls-11" x="5.65" y="8.29" width="2.82" height="2.76"/>
    <rect class="cls-11" y="8.29" width="2.82" height="2.76"/>
    <rect class="cls-11" x="67.75" y="5.53" width="2.82" height="2.76"/>
    <rect class="cls-11" x="62.1" y="5.53" width="2.82" height="2.76"/>
    <rect class="cls-11" x="59.28" y="5.53" width="2.82" height="2.76"/>
    <rect class="cls-11" x="56.46" y="5.53" width="2.82" height="2.76"/>
    <rect class="cls-11" x="50.81" y="5.53" width="2.82" height="2.76"/>
    <rect class="cls-11" x="42.34" y="5.53" width="2.82" height="2.76"/>
    <rect class="cls-11" x="36.7" y="5.53" width="2.82" height="2.76"/>
    <rect class="cls-11" x="28.23" y="5.53" width="2.82" height="2.76"/>
    <rect class="cls-11" x="16.94" y="5.53" width="2.82" height="2.76"/>
    <rect class="cls-11" x="11.29" y="5.53" width="2.82" height="2.76"/>
    <rect class="cls-11" x="8.47" y="5.53" width="2.82" height="2.76"/>
    <rect class="cls-11" x="5.65" y="5.53" width="2.82" height="2.76"/>
    <rect class="cls-11" y="5.53" width="2.82" height="2.76"/>
    <rect class="cls-11" x="67.75" y="2.76" width="2.82" height="2.76"/>
    <rect class="cls-11" x="50.81" y="2.76" width="2.82" height="2.76"/>
    <rect class="cls-11" x="45.17" y="2.76" width="2.82" height="2.76"/>
    <rect class="cls-11" x="39.52" y="2.76" width="2.82" height="2.76"/>
    <rect class="cls-11" x="36.7" y="2.76" width="2.82" height="2.76"/>
    <rect class="cls-11" x="28.23" y="2.76" width="2.82" height="2.76"/>
    <rect class="cls-11" x="25.41" y="2.76" width="2.82" height="2.76"/>
    <rect class="cls-11" x="22.58" y="2.76" width="2.82" height="2.76"/>
    <rect class="cls-11" x="16.94" y="2.76" width="2.82" height="2.76"/>
    <rect class="cls-11" y="2.76" width="2.82" height="2.76"/>
    <rect class="cls-11" x="67.75" width="2.82" height="2.76"/>
    <rect class="cls-11" x="64.93" width="2.82" height="2.76"/>
    <rect class="cls-11" x="62.1" width="2.82" height="2.76"/>
    <rect class="cls-11" x="59.28" width="2.82" height="2.76"/>
    <rect class="cls-11" x="56.46" width="2.82" height="2.76"/>
    <rect class="cls-11" x="53.63" width="2.82" height="2.76"/>
    <rect class="cls-11" x="39.52" width="2.82" height="2.76"/>
    <rect class="cls-11" x="33.87" width="2.82" height="2.76"/>
    <rect class="cls-11" x="31.05" width="2.82" height="2.76"/>
    <rect class="cls-11" x="28.23" width="2.82" height="2.76"/>
    <rect class="cls-11" x="22.58" width="2.82" height="2.76"/>
    <rect class="cls-11" x="16.94" width="2.82" height="2.76"/>
    <rect class="cls-11" x="14.11" width="2.82" height="2.76"/>
    <rect class="cls-11" x="11.29" width="2.82" height="2.76"/>
    <rect class="cls-11" x="8.47" width="2.82" height="2.76"/>
    <rect class="cls-11" x="5.65" width="2.82" height="2.76"/>
    <rect class="cls-11" x="2.82" width="2.82" height="2.76"/>
    <rect class="cls-11" width="2.82" height="2.76"/>
    <rect class="cls-11" x="45.17" width="2.82" height="2.76"/>
    <rect class="cls-11" x="50.81" width="2.82" height="2.76"/>
    <rect class="cls-11" x="50.81" y="16.58" width="2.82" height="2.76"/>
    <rect class="cls-11" x="0" y="66.38" width="2.82" height="2.76"/>
  </g>
</svg>